<svg width="35" height="36" viewBox="0 0 35 36" fill="none" xmlns="http://www.w3.org/2000/svg">
<path d="M21.4192 21.5387H16.5994V20.243H18.3983C19.7729 20.243 21.0912 19.6969 22.0632 18.7249C23.0351 17.7529 23.5812 16.4346 23.5812 15.0601C23.5812 13.6855 23.0351 12.3672 22.0632 11.3952C21.0912 10.4232 19.7729 9.87714 18.3983 9.87714H15.5057C15.2156 9.87714 14.9374 9.99237 14.7323 10.1975C14.5272 10.4026 14.4119 10.6808 14.4119 10.9709V18.0555H12.5117C12.2216 18.0555 11.9434 18.1707 11.7383 18.3758C11.5332 18.5809 11.418 18.8591 11.418 19.1492C11.418 19.4393 11.5332 19.7175 11.7383 19.9226C11.9434 20.1277 12.2216 20.243 12.5117 20.243H14.4119V21.5387H12.5117C12.2216 21.5387 11.9434 21.6539 11.7383 21.859C11.5332 22.0642 11.418 22.3424 11.418 22.6324C11.418 22.9225 11.5332 23.2007 11.7383 23.4058C11.9434 23.611 12.2216 23.7262 12.5117 23.7262H14.4119V25.3836C14.4119 25.6737 14.5272 25.9519 14.7323 26.157C14.9374 26.3621 15.2156 26.4773 15.5057 26.4773C15.7958 26.4773 16.074 26.3621 16.2791 26.157C16.4842 25.9519 16.5994 25.6737 16.5994 25.3836V23.7262H21.4192C21.7093 23.7262 21.9875 23.611 22.1926 23.4058C22.3977 23.2007 22.513 22.9225 22.513 22.6324C22.513 22.3424 22.3977 22.0642 22.1926 21.859C21.9875 21.6539 21.7093 21.5387 21.4192 21.5387ZM16.5994 12.0646H18.3983C19.1927 12.0646 19.9546 12.3802 20.5164 12.942C21.0781 13.5037 21.3937 14.2656 21.3937 15.0601C21.3937 15.8545 21.0781 16.6164 20.5164 17.1781C19.9546 17.7399 19.1927 18.0555 18.3983 18.0555H16.5994V12.0646Z" fill="white"/>
<path d="M17.5001 35.6743C14.7384 35.674 12.0161 35.0201 9.55559 33.7662C7.09509 32.5122 4.96629 30.6937 3.34325 28.4593C1.72021 26.225 0.648994 23.6382 0.217195 20.9106C-0.214605 18.1829 0.00526804 15.3918 0.858836 12.7654C1.7124 10.139 3.17543 7.75187 5.12831 5.79923C7.08119 3.84658 9.46846 2.38383 12.095 1.53057C14.7215 0.677305 17.5126 0.45776 20.2402 0.889879C22.9678 1.322 25.5544 2.39351 27.7886 4.01682C28.0232 4.18748 28.1804 4.44434 28.2256 4.73089C28.2707 5.01744 28.2003 5.31021 28.0296 5.54479C27.8589 5.77937 27.6021 5.93654 27.3155 5.98173C27.029 6.02693 26.7362 5.95644 26.5016 5.78578C23.4587 3.57772 19.709 2.568 15.9688 2.94951C12.2285 3.33101 8.75992 5.07698 6.22546 7.85393C3.691 10.6309 2.26835 14.2442 2.22924 18.0036C2.19013 21.763 3.53731 25.4051 6.01345 28.2342C8.4896 31.0633 11.9211 32.881 15.6526 33.3402C19.3841 33.7995 23.154 32.868 26.2422 30.7237C29.3304 28.5794 31.5205 25.3726 32.394 21.7159C33.2676 18.0592 32.7635 14.2087 30.978 10.9002C30.8504 10.6459 30.8268 10.352 30.9124 10.0807C30.9979 9.80935 31.1858 9.58204 31.4361 9.44695C31.6865 9.31186 31.9796 9.27963 32.2533 9.35708C32.527 9.43454 32.7598 9.61558 32.9022 9.86182C34.3397 12.5281 35.0608 15.5217 34.9949 18.55C34.929 21.5784 34.0784 24.5378 32.5263 27.139C30.9742 29.7401 28.7737 31.8941 26.1399 33.3901C23.5061 34.8862 20.5291 35.6733 17.5001 35.6743Z" fill="white"/>
<path d="M29.9841 8.62223C29.8261 8.62243 29.6699 8.58838 29.5263 8.52242C29.3826 8.45646 29.255 8.36016 29.1522 8.24015L28.9553 8.01337C28.8578 7.90637 28.7825 7.78107 28.7337 7.64474C28.685 7.50842 28.6638 7.36377 28.6714 7.21919C28.679 7.07462 28.7153 6.93299 28.778 6.80252C28.8408 6.67205 28.9288 6.55534 29.037 6.45915C29.1452 6.36297 29.2714 6.28922 29.4084 6.24219C29.5453 6.19515 29.6902 6.17577 29.8346 6.18517C29.9791 6.19456 30.1203 6.23254 30.25 6.29691C30.3796 6.36128 30.4953 6.45075 30.5901 6.56014L30.8147 6.81754C30.9505 6.97639 31.038 7.17084 31.0668 7.37787C31.0956 7.5849 31.0645 7.79585 30.9771 7.98573C30.8897 8.17561 30.7497 8.33648 30.5738 8.44928C30.3978 8.56209 30.1932 8.6221 29.9841 8.62223Z" fill="white"/>
</svg>
