<svg width="37" height="38" viewBox="0 0 37 38" fill="none" xmlns="http://www.w3.org/2000/svg">
<g clip-path="url(#clip0_116_367)">
<path d="M25.7266 31.6763C25.3277 31.6763 25.0039 32 25.0039 32.3989C25.0039 32.7978 25.3277 33.1216 25.7266 33.1216C26.1255 33.1216 26.4492 32.7978 26.4492 32.3989C26.4492 32 26.1255 31.6763 25.7266 31.6763Z" fill="white"/>
<path d="M11.2734 31.6763C10.8745 31.6763 10.5508 32 10.5508 32.3989C10.5508 32.7978 10.8745 33.1216 11.2734 33.1216C11.6723 33.1216 11.9961 32.7978 11.9961 32.3989C11.9961 32 11.6723 31.6763 11.2734 31.6763Z" fill="white"/>
<path d="M32.3493 27.9336C31.5359 26.6745 30.418 25.674 29.1084 25.0278C28.998 24.9253 28.856 24.8566 28.6981 24.839C27.7509 24.4369 26.7525 24.2329 25.7266 24.2329H23.5586V22.3263C24.8132 21.2499 25.7151 19.8241 26.1525 18.2349H26.4492C28.0431 18.2349 29.3398 16.9381 29.3398 15.3442C29.3398 14.5889 29.0483 13.9007 28.5722 13.3851C28.6177 13.3465 28.6621 13.3063 28.7047 13.2638C29.1143 12.8542 29.3398 12.3098 29.3398 11.731C29.3398 10.7797 28.7237 9.97013 27.8697 9.6789C27.6144 6.35584 25.2822 3.51609 22.0711 2.62607C21.8808 1.63227 21.0607 0.674316 19.9453 0.674316H17.0547C15.9393 0.674316 15.1192 1.63227 14.9289 2.62607C11.7181 3.51602 9.38608 6.35526 9.13033 9.67789C8.81944 9.78333 8.53435 9.95915 8.2953 10.1981C7.8857 10.6077 7.66016 11.1521 7.66016 11.731C7.66016 12.3931 7.9589 12.9866 8.42834 13.3845C7.95196 13.9001 7.66016 14.5886 7.66016 15.3442C7.66016 16.9381 8.95689 18.2349 10.5508 18.2349H10.8455C11.2106 19.5614 11.9028 20.7793 12.8685 21.7853C13.0499 21.9745 13.2423 22.1548 13.4414 22.3257V24.2329H11.2734C10.2474 24.2329 9.24899 24.4369 8.30187 24.8389C8.14405 24.8566 8.00197 24.9252 7.89162 25.0278C6.58195 25.674 5.46415 26.6745 4.65065 27.9336C3.78289 29.2768 3.32422 30.8209 3.32422 32.3989V36.9517C3.32422 37.3507 3.64775 37.6743 4.04688 37.6743H32.9531C33.3522 37.6743 33.6758 37.3507 33.6758 36.9517V32.3989C33.6758 30.8209 33.2171 29.2768 32.3493 27.9336ZM7.66016 36.229H4.76953V32.3989C4.76953 30.2008 5.89557 28.094 7.66016 26.8433V36.229ZM26.4492 16.7896H26.4163C26.4378 16.5491 26.4492 16.3078 26.4492 16.0669V13.8989C27.2462 13.8989 27.8945 14.5473 27.8945 15.3442C27.8945 16.1412 27.2462 16.7896 26.4492 16.7896ZM14.8867 4.15311V7.39502C14.8867 7.79414 15.2103 8.11768 15.6094 8.11768C16.0085 8.11768 16.332 7.79414 16.332 7.39502V3.20817C16.332 3.20629 16.332 3.20441 16.332 3.20253V3.05908C16.332 2.61132 16.7103 2.11963 17.0547 2.11963H19.9453C20.2897 2.11963 20.668 2.61132 20.668 3.05908V3.20253C20.668 3.20441 20.668 3.20629 20.668 3.20817V7.39502C20.668 7.79414 20.9915 8.11768 21.3906 8.11768C21.7897 8.11768 22.1133 7.79414 22.1133 7.39502V4.15311C24.4467 4.97889 26.1313 7.09049 26.4088 9.56299H10.5912C10.8688 7.09049 12.5533 4.97889 14.8867 4.15311ZM10.5508 16.7896C9.75384 16.7896 9.10547 16.1412 9.10547 15.3442C9.10547 14.5473 9.75384 13.8989 10.5508 13.8989V16.0669C10.5508 16.3078 10.5622 16.5492 10.5837 16.7896H10.5508ZM10.5508 12.4536H9.82812C9.42965 12.4536 9.10547 12.1294 9.10547 11.731C9.10547 11.5382 9.1807 11.3567 9.31728 11.2202C9.45393 11.0835 9.63532 11.0083 9.82812 11.0083H27.1719C27.5703 11.0083 27.8945 11.3325 27.8945 11.731C27.8945 11.9238 27.8193 12.1052 27.6827 12.2417C27.5461 12.3784 27.3647 12.4536 27.1719 12.4536H26.4492H25.7266H11.2734H10.5508ZM12.1274 17.3809C12.126 17.373 12.1246 17.3652 12.1228 17.3575C12.0389 16.9334 11.9961 16.4993 11.9961 16.0669V13.8989H25.0039V16.0669C25.0039 16.4989 24.9611 16.9327 24.8772 17.3572C24.8754 17.365 24.874 17.3729 24.8726 17.3808C24.5496 18.9928 23.6559 20.4358 22.3544 21.445C21.2237 22.3234 19.8909 22.7876 18.5 22.7876C17.1091 22.7876 15.7763 22.3234 14.6446 21.4443C14.3855 21.2438 14.1389 21.022 13.9114 20.7848C12.9998 19.835 12.3832 18.6585 12.1274 17.3809ZM17.7773 36.229H11.9961V34.5669C11.9961 34.1678 11.6726 33.8442 11.2734 33.8442C10.8743 33.8442 10.5508 34.1678 10.5508 34.5669V36.229H9.10547V26.0738C9.57447 25.897 10.0576 25.7791 10.5508 25.721V30.231C10.5508 30.6301 10.8743 30.9536 11.2734 30.9536C11.6726 30.9536 11.9961 30.6301 11.9961 30.231V25.6782H13.8544L17.7773 29.7974V36.229ZM14.8867 24.6665V23.3205C16.0018 23.9199 17.2301 24.2329 18.5 24.2329C19.77 24.2329 20.9983 23.9199 22.1133 23.3206V24.6665L18.5 28.4604L14.8867 24.6665ZM27.8945 36.229H26.4492V34.5669C26.4492 34.1678 26.1257 33.8442 25.7266 33.8442C25.3274 33.8442 25.0039 34.1678 25.0039 34.5669V36.229H19.2227V29.7974L23.1456 25.6782H25.0039V30.231C25.0039 30.6301 25.3274 30.9536 25.7266 30.9536C26.1257 30.9536 26.4492 30.6301 26.4492 30.231V25.721C26.9424 25.7791 27.4255 25.897 27.8945 26.0739V36.229ZM32.2305 36.229H29.3398V26.8432C31.1044 28.0939 32.2305 30.2008 32.2305 32.3989V36.229Z" fill="white"/>
</g>
<defs>
<clipPath id="clip0_116_367">
<rect width="37" height="37" fill="white" transform="translate(0 0.674316)"/>
</clipPath>
</defs>
</svg>
