<svg width="32" height="33" viewBox="0 0 32 33" fill="none" xmlns="http://www.w3.org/2000/svg">
<path d="M28.6505 24.4669C28.0965 24.0548 27.3135 24.1699 26.9015 24.7237C26.6749 25.0283 26.4324 25.3271 26.1807 25.6118C25.7235 26.129 25.772 26.919 26.2892 27.3762C26.5271 27.5865 26.8224 27.6897 27.1167 27.6897C27.4624 27.6897 27.8067 27.5471 28.0537 27.2676C28.3517 26.9305 28.6389 26.5766 28.9073 26.2158C29.3194 25.662 29.2044 24.8789 28.6505 24.4669Z" fill="white"/>
<path d="M30.7409 18.6047C30.0668 18.4579 29.4005 18.8857 29.2537 19.5602C29.1728 19.9313 29.0752 20.303 28.9633 20.6653C28.7595 21.3249 29.129 22.0248 29.7885 22.2286C29.9115 22.2665 30.0357 22.2846 30.158 22.2846C30.6917 22.2846 31.186 21.9399 31.3518 21.4032C31.4847 20.9733 31.6006 20.5321 31.6965 20.0919C31.8433 19.4174 31.4155 18.7516 30.7409 18.6047Z" fill="white"/>
<path d="M22.634 28.4703C22.3022 28.6556 21.9585 28.8287 21.6128 28.9849C20.9836 29.269 20.7039 30.0094 20.988 30.6386C21.1968 31.1008 21.6517 31.3744 22.128 31.3744C22.3 31.3744 22.4748 31.3387 22.6417 31.2633C23.0519 31.0781 23.4593 30.8728 23.8528 30.6531C24.4556 30.3166 24.6714 29.5551 24.3348 28.9523C23.9984 28.3496 23.2369 28.1338 22.634 28.4703Z" fill="white"/>
<path d="M14.7496 6.67432V16.1566L10.1659 20.7402C9.67777 21.2284 9.67777 22.0198 10.1659 22.5079C10.41 22.7521 10.7298 22.8741 11.0498 22.8741C11.3697 22.8741 11.6896 22.752 11.9338 22.5079L16.8835 17.5582C17.1179 17.3238 17.2496 17.0058 17.2496 16.6743V6.67432C17.2496 5.98394 16.69 5.42432 15.9996 5.42432C15.3092 5.42432 14.7496 5.98394 14.7496 6.67432Z" fill="white"/>
<path d="M30.75 3.36182C30.0596 3.36182 29.5 3.92144 29.5 4.61182V8.08282C26.5905 3.51982 21.5094 0.674316 16 0.674316C11.7262 0.674316 7.70831 2.33863 4.68625 5.36057C1.66431 8.38263 0 12.4006 0 16.6743C0 20.9481 1.66431 24.966 4.68625 27.9881C7.70831 31.01 11.7262 32.6743 16 32.6743C16.0106 32.6743 16.0208 32.673 16.0312 32.6728C16.0417 32.673 16.0519 32.6743 16.0625 32.6743C16.513 32.6743 16.9679 32.6553 17.4148 32.6179C18.1027 32.5603 18.6137 31.9559 18.5562 31.268C18.4985 30.5801 17.8949 30.0688 17.2062 30.1267C16.8284 30.1583 16.4437 30.1743 16.0625 30.1743C16.0519 30.1743 16.0417 30.1756 16.0312 30.1759C16.0208 30.1756 16.0106 30.1743 16 30.1743C8.55606 30.1743 2.5 24.1183 2.5 16.6743C2.5 9.23038 8.55606 3.17432 16 3.17432C20.7974 3.17432 25.2098 5.73138 27.621 9.79932H24.1839C23.4936 9.79932 22.9339 10.3589 22.9339 11.0493C22.9339 11.7397 23.4936 12.2993 24.1839 12.2993H28C28.7612 12.2993 29.4734 12.0854 30.0798 11.7148C30.1188 11.6925 30.1563 11.6686 30.1921 11.6428C31.2799 10.9271 32 9.696 32 8.29932V4.61182C32 3.92144 31.4404 3.36182 30.75 3.36182Z" fill="white"/>
</svg>
