<svg width="33" height="34" viewBox="0 0 33 34" fill="none" xmlns="http://www.w3.org/2000/svg">
<path d="M32.1485 11.0595C31.0176 9.92856 29.1776 9.92863 28.0463 11.0597C27.6984 11.408 25.477 13.6311 25.1377 13.9708V6.3092C25.1377 5.53447 24.836 4.80615 24.2881 4.25836L21.5537 1.52381C21.0059 0.975957 20.2775 0.674316 19.5028 0.674316H2.90137C1.30209 0.674316 0.000976562 1.97543 0.000976562 3.57471V30.7739C0.000976562 32.3732 1.30209 33.6743 2.90137 33.6743H22.2373C23.8366 33.6743 25.1377 32.3732 25.1377 30.7739V22.1779L32.1484 15.1613C33.2819 14.0278 33.2822 12.1931 32.1485 11.0595ZM19.337 2.60791C19.5196 2.60791 19.8716 2.57626 20.1865 2.89105L22.921 5.62561C23.2278 5.93247 23.2042 6.26872 23.2042 6.4751H19.337V2.60791ZM23.2041 30.7739C23.2041 31.307 22.7705 31.7407 22.2373 31.7407H2.90137C2.36828 31.7407 1.93457 31.307 1.93457 30.7739V3.57471C1.93457 3.04162 2.36828 2.60791 2.90137 2.60791H17.4033V7.44189C17.4033 7.97582 17.8362 8.40869 18.3701 8.40869H23.2041V15.9061C23.2041 15.9061 20.3518 18.7608 20.3517 18.7609L18.9851 20.1276C18.879 20.2336 18.7989 20.3631 18.7515 20.5054L17.3842 24.6072C17.2684 24.9546 17.3588 25.3377 17.6178 25.5966C17.8771 25.8559 18.2602 25.9459 18.6071 25.8302L22.7089 24.4629C22.8513 24.4155 22.9807 24.3355 23.0868 24.2294L23.2041 24.1121V30.7739ZM21.0359 20.8112L22.4031 22.1785L21.8809 22.7007L19.83 23.3843L20.5136 21.3334L21.0359 20.8112ZM23.7701 20.8109L22.4029 19.4436C23.1309 18.715 26.3645 15.4787 27.0503 14.7923L28.4175 16.1596L23.7701 20.8109ZM30.7809 13.7943L29.7843 14.7917L28.417 13.4245L29.414 12.4267C29.7911 12.0497 30.4044 12.0498 30.7813 12.4267C31.1581 12.8038 31.1601 13.415 30.7809 13.7943Z" fill="white"/>
</svg>
