<svg width="35" height="36" viewBox="0 0 35 36" fill="none" xmlns="http://www.w3.org/2000/svg">
<g clip-path="url(#clip0_116_377)">
<path d="M16.0121 29.6704H11.9856C11.4193 29.6704 10.96 30.1297 10.96 30.6964C10.96 31.2627 11.4193 31.722 11.9856 31.722H16.0121C16.5785 31.722 17.0378 31.2627 17.0378 30.6964C17.0378 30.1297 16.5785 29.6704 16.0121 29.6704Z" fill="white"/>
<path d="M27.2263 9.78347H24.9223V4.61993C24.9221 2.44445 23.1522 0.674316 20.9764 0.674316H7.02179C4.84631 0.674316 3.07617 2.44445 3.07617 4.61993V31.7287C3.07617 33.9042 4.84631 35.6743 7.02179 35.6743H20.9764C23.1522 35.6743 24.9221 33.9042 24.9221 31.7287V22.9661H27.2263C29.806 22.9661 31.9049 20.8673 31.9049 18.2873V14.4623C31.9051 11.8826 29.806 9.78347 27.2263 9.78347ZM17.0511 2.7259V3.74034H10.9471V2.7259H17.0511ZM22.8705 31.7287C22.8705 32.773 22.0208 33.6227 20.9764 33.6227H7.02179C5.97744 33.6227 5.12775 32.773 5.12775 31.7287V4.61993C5.12775 3.57558 5.97744 2.7259 7.02179 2.7259H8.89553V3.82392C8.89553 4.90913 9.77833 5.79192 10.8635 5.79192H17.135C18.2199 5.79192 19.1027 4.90913 19.1027 3.82392V2.7259H20.9764C22.0208 2.7259 22.8705 3.57558 22.8705 4.61993V9.78347H17.6522C15.0722 9.78347 12.9733 11.8823 12.9733 14.4623V23.5475C12.9733 24.0182 13.2329 24.4455 13.6505 24.6626C13.8337 24.7579 14.0326 24.8049 14.2308 24.8049C14.4511 24.8049 14.6703 24.7467 14.8658 24.6319L18.1652 22.9661H22.8705V31.7287ZM29.8536 18.2873C29.8536 19.7362 28.6749 20.9146 27.2263 20.9146H17.9708C17.7454 20.9146 17.5278 20.9741 17.335 21.0871L15.0249 22.2534V14.4623C15.0249 13.0137 16.2036 11.8351 17.6522 11.8351H27.2263C28.6749 11.8351 29.8536 13.0137 29.8536 14.4623V18.2873Z" fill="white"/>
<path d="M26.9273 13.4492H17.9514C17.3851 13.4492 16.9258 13.9085 16.9258 14.4749C16.9258 15.0415 17.3851 15.5008 17.9514 15.5008H26.9273C27.4937 15.5008 27.953 15.0415 27.953 14.4749C27.953 13.9085 27.4937 13.4492 26.9273 13.4492Z" fill="white"/>
<path d="M26.9267 16.9521H22.4387C21.8721 16.9521 21.4131 17.4114 21.4131 17.9778C21.4131 18.5444 21.8721 19.0037 22.4387 19.0037H26.9267C27.4931 19.0037 27.9524 18.5444 27.9524 17.9778C27.9524 17.4114 27.4931 16.9521 26.9267 16.9521Z" fill="white"/>
</g>
<defs>
<clipPath id="clip0_116_377">
<rect width="35" height="35" fill="white" transform="translate(0 0.674316)"/>
</clipPath>
</defs>
</svg>
