<svg width="34" height="41" viewBox="0 0 34 41" fill="none" xmlns="http://www.w3.org/2000/svg">
<path d="M17.0007 5.67432C14.6932 5.67432 12.4376 6.35855 10.519 7.6405C8.60043 8.92245 7.10508 10.7445 6.22206 12.8763C5.33904 15.0081 5.108 17.3539 5.55816 19.617C6.00832 21.8801 7.11946 23.9589 8.75108 25.5906C10.3827 27.2222 12.4615 28.3333 14.7246 28.7835C16.9877 29.2336 19.3335 29.0026 21.4653 28.1196C23.5971 27.2366 25.4192 25.7412 26.7011 23.8226C27.9831 21.9041 28.6673 19.6484 28.6673 17.341C28.6673 14.2468 27.4382 11.2793 25.2502 9.0914C23.0623 6.90348 20.0948 5.67432 17.0007 5.67432ZM17.0007 27.341C15.0228 27.341 13.0894 26.7545 11.445 25.6557C9.80046 24.5569 8.51874 22.9951 7.76186 21.1678C7.00498 19.3406 6.80695 17.3299 7.1928 15.3901C7.57866 13.4503 8.53106 11.6684 9.92959 10.2699C11.3281 8.87139 13.1099 7.91898 15.0498 7.53313C16.9896 7.14728 19.0002 7.34531 20.8275 8.10219C22.6548 8.85906 24.2165 10.1408 25.3154 11.7853C26.4142 13.4298 27.0007 15.3632 27.0007 17.341C27.0007 19.9931 25.9471 22.5367 24.0717 24.412C22.1964 26.2874 19.6528 27.341 17.0007 27.341Z" fill="white"/>
<path d="M32.6421 15.066C32.4219 14.8668 32.272 14.6017 32.2149 14.3103C32.1578 14.0189 32.1966 13.7168 32.3255 13.4493C32.5085 13.0651 32.6087 12.6466 32.6194 12.2211C32.6301 11.7956 32.5512 11.3725 32.3877 10.9796C32.2242 10.5866 31.9799 10.2324 31.6705 9.94002C31.3612 9.64766 30.9937 9.42369 30.5921 9.28265C30.3101 9.18774 30.0673 9.00229 29.9015 8.75513C29.7357 8.50798 29.6563 8.21297 29.6755 7.91598C29.7001 7.47703 29.6297 7.03792 29.4693 6.62861C29.3088 6.21929 29.062 5.84938 28.7456 5.54409C28.4293 5.2388 28.0508 5.0053 27.636 4.85952C27.2213 4.71374 26.7799 4.6591 26.3421 4.69932C26.0591 4.70032 25.783 4.61236 25.5527 4.44787C25.3224 4.28338 25.1496 4.05067 25.0588 3.78265C24.9178 3.38105 24.6938 3.01363 24.4014 2.70427C24.1091 2.39492 23.7549 2.15055 23.3619 1.98707C22.9689 1.82358 22.5459 1.74463 22.1204 1.75536C21.6949 1.76608 21.2764 1.86624 20.8921 2.04932C19.3255 2.76598 19.2671 0.674316 17.0005 0.674316C16.5707 0.676694 16.1462 0.769139 15.7543 0.945687C15.3625 1.12224 15.012 1.37897 14.7255 1.69932C14.5233 1.91513 14.2584 2.06185 13.9683 2.11869C13.6781 2.17552 13.3774 2.13959 13.1088 2.01598C12.7247 1.83156 12.3061 1.73033 11.8802 1.71894C11.4543 1.70756 11.0308 1.78626 10.6374 1.9499C10.2441 2.11353 9.88972 2.35842 9.59757 2.66851C9.30542 2.9786 9.08206 3.34691 8.94213 3.74932C8.84444 4.03127 8.65716 4.2735 8.40888 4.43901C8.1606 4.60453 7.86497 4.68425 7.56713 4.66598C7.12818 4.64138 6.68907 4.7117 6.27976 4.87216C5.87044 5.03262 5.50053 5.27945 5.19524 5.59581C4.88994 5.91217 4.65645 6.29064 4.51067 6.70541C4.36489 7.12019 4.31024 7.56151 4.35047 7.99932C4.35146 8.28231 4.2635 8.55847 4.09901 8.78876C3.93452 9.01904 3.70182 9.19181 3.4338 9.28265C3.033 9.42478 2.66646 9.64937 2.35783 9.94192C2.0492 10.2345 1.80535 10.5885 1.64201 10.9811C1.47868 11.3738 1.39949 11.7963 1.40956 12.2214C1.41962 12.6466 1.51873 13.0649 1.70047 13.4493C1.84071 13.7234 1.88491 14.0366 1.82598 14.3388C1.76705 14.641 1.60841 14.9147 1.37547 15.116C1.05527 15.4013 0.79903 15.7512 0.623578 16.1425C0.448125 16.5339 0.357422 16.9579 0.357422 17.3868C0.357422 17.8157 0.448125 18.2398 0.623578 18.6311C0.79903 19.0225 1.05527 19.3723 1.37547 19.6577C1.59574 19.8568 1.74563 20.1219 1.80271 20.4133C1.85979 20.7047 1.821 21.0068 1.69213 21.2743C1.5077 21.6584 1.40648 22.077 1.39509 22.5029C1.3837 22.9288 1.46241 23.3523 1.62604 23.7457C1.78968 24.139 2.03457 24.4934 2.34466 24.7855C2.65475 25.0777 3.02306 25.3011 3.42547 25.441C3.70741 25.5387 3.94964 25.726 4.11516 25.9742C4.28068 26.2225 4.3604 26.5182 4.34213 26.816C4.30151 27.5039 4.49763 28.185 4.89789 28.746C5.29815 29.3069 5.87841 29.714 6.54213 29.8993C2.61713 36.7077 2.6088 36.4076 2.99213 36.9827C3.37547 37.5577 3.6338 37.366 7.30047 36.9243C8.7338 40.3077 8.7088 40.6743 9.39213 40.6743C10.0755 40.6743 9.9338 40.6743 14.4755 32.7826C14.5687 32.8428 14.6553 32.9126 14.7338 32.991C15.0191 33.3112 15.369 33.5674 15.7603 33.7429C16.1517 33.9183 16.5757 34.009 17.0046 34.009C17.4335 34.009 17.8576 33.9183 18.2489 33.7429C18.6403 33.5674 18.9901 33.3112 19.2755 32.991C19.3517 32.9159 19.4355 32.8488 19.5255 32.791C24.1838 40.866 23.9088 40.7327 24.6088 40.6827C25.3088 40.6326 25.2671 40.3243 26.7171 36.916C30.3588 37.3577 30.6505 37.5493 31.0255 36.9743C31.4005 36.3993 31.2088 36.366 27.4755 29.8993C28.1523 29.7053 28.7411 29.2832 29.1421 28.7045C29.5431 28.1258 29.7316 27.4261 29.6755 26.7243C29.6745 26.4413 29.7624 26.1652 29.9269 25.9349C30.0914 25.7046 30.3241 25.5318 30.5921 25.441C30.9929 25.2989 31.3595 25.0743 31.6681 24.7817C31.9767 24.4892 32.2206 24.1351 32.3839 23.7425C32.5473 23.3499 32.6264 22.9273 32.6164 22.5022C32.6063 22.0771 32.5072 21.6588 32.3255 21.2743C32.1993 21.0062 32.1619 20.7049 32.2189 20.4141C32.2758 20.1233 32.4241 19.8583 32.6421 19.6577C32.9719 19.3729 33.2365 19.0204 33.4178 18.6243C33.5991 18.2281 33.693 17.7975 33.693 17.3618C33.693 16.9261 33.5991 16.4955 33.4178 16.0994C33.2365 15.7032 32.9719 15.3507 32.6421 15.066ZM9.55047 37.9827C8.0838 34.5577 8.86713 35.041 5.22547 35.4827C8.6088 29.6493 8.24213 30.1743 8.34213 30.2327C8.60603 30.3937 8.80621 30.641 8.9088 30.9327C9.15671 31.6454 9.66075 32.2406 10.323 32.6025C10.9852 32.9645 11.7583 33.0673 12.4921 32.891L9.55047 37.9827ZM24.4505 37.9827L21.5088 32.891C22.2415 33.0669 23.0134 32.9638 23.6743 32.6018C24.3351 32.2398 24.8376 31.6448 25.0838 30.9327C25.2068 30.6195 25.4332 30.3578 25.7255 30.191L28.7755 35.4827C25.1005 35.0326 25.8921 34.5993 24.4505 37.9827ZM31.5421 18.366C31.0481 18.8069 30.7109 19.3966 30.5816 20.0461C30.4523 20.6956 30.5379 21.3695 30.8255 21.966C30.9103 22.1393 30.9572 22.3288 30.9631 22.5217C30.969 22.7146 30.9337 22.9065 30.8596 23.0847C30.7855 23.263 30.6742 23.4233 30.5333 23.5551C30.3923 23.687 30.2249 23.7873 30.0421 23.8493C29.4069 24.0744 28.8636 24.5025 28.496 25.0673C28.1285 25.6322 27.9573 26.3024 28.0088 26.9743C28.0083 27.1655 27.9682 27.3546 27.891 27.5295C27.8138 27.7044 27.7012 27.8614 27.5602 27.9906C27.4193 28.1198 27.2531 28.2184 27.0721 28.2802C26.8911 28.3419 26.6993 28.3654 26.5088 28.3493C25.857 28.3229 25.214 28.5061 24.674 28.8721C24.1341 29.238 23.7257 29.7675 23.5088 30.3827C23.4445 30.5638 23.343 30.7294 23.2107 30.8689C23.0785 31.0084 22.9185 31.1186 22.741 31.1924C22.5636 31.2662 22.3726 31.302 22.1804 31.2974C21.9883 31.2929 21.7992 31.2481 21.6255 31.166C21.0299 30.8835 20.3594 30.7999 19.7127 30.9274C19.0661 31.055 18.4775 31.3869 18.0338 31.8743C17.9008 32.0132 17.741 32.1237 17.5642 32.1993C17.3873 32.2748 17.1969 32.3137 17.0046 32.3137C16.8123 32.3137 16.622 32.2748 16.4451 32.1993C16.2682 32.1237 16.1085 32.0132 15.9755 31.8743C15.5345 31.3802 14.9448 31.0431 14.2953 30.9138C13.6459 30.7845 12.972 30.8701 12.3755 31.1577C12.2013 31.2412 12.0115 31.2871 11.8184 31.2924C11.6253 31.2976 11.4332 31.2622 11.2548 31.1883C11.0763 31.1144 10.9154 31.0037 10.7826 30.8634C10.6497 30.7232 10.5479 30.5565 10.4838 30.3743C10.2627 29.7382 9.83674 29.1934 9.2727 28.8254C8.70865 28.4574 8.03843 28.2871 7.36713 28.341C7.17592 28.3405 6.98689 28.3004 6.81196 28.2232C6.63703 28.146 6.48001 28.0334 6.35081 27.8924C6.2216 27.7515 6.12302 27.5853 6.06129 27.4043C5.99955 27.2233 5.97601 27.0315 5.99213 26.841C6.01989 26.189 5.8372 25.5453 5.47105 25.0051C5.1049 24.4649 4.57471 24.0567 3.9588 23.841C3.77522 23.7801 3.60686 23.6805 3.46513 23.5488C3.32341 23.4172 3.21162 23.2567 3.13734 23.0781C3.06306 22.8995 3.02802 22.707 3.0346 22.5137C3.04118 22.3204 3.08922 22.1308 3.17547 21.9577C3.46061 21.3627 3.54571 20.6914 3.41805 20.0441C3.29039 19.3968 2.95682 18.8082 2.46713 18.366C2.32152 18.237 2.20493 18.0785 2.12509 17.9011C2.04525 17.7237 2.00397 17.5314 2.00397 17.3368C2.00397 17.1423 2.04525 16.9499 2.12509 16.7725C2.20493 16.5951 2.32152 16.4367 2.46713 16.3077C2.9589 15.8652 3.2944 15.2755 3.42356 14.6267C3.55272 13.9779 3.46862 13.3047 3.1838 12.7077C3.09755 12.5345 3.04951 12.3449 3.04293 12.1516C3.03635 11.9583 3.07139 11.7658 3.14567 11.5872C3.21995 11.4086 3.33174 11.2481 3.47347 11.1165C3.61519 10.9848 3.78355 10.8852 3.96713 10.8243C4.60233 10.5992 5.14569 10.1711 5.51322 9.60629C5.88075 9.04144 6.05199 8.37125 6.00047 7.69932C5.99967 7.50773 6.03892 7.3181 6.11571 7.14257C6.19249 6.96704 6.3051 6.80949 6.44633 6.68004C6.58756 6.55058 6.75429 6.45206 6.93582 6.3908C7.11734 6.32954 7.30967 6.3069 7.50047 6.32432C8.15249 6.35207 8.79614 6.16938 9.33636 5.80324C9.87658 5.43709 10.2847 4.9069 10.5005 4.29098C10.5647 4.10985 10.6663 3.9442 10.7985 3.80473C10.9308 3.66526 11.0908 3.55507 11.2682 3.48125C11.4457 3.40744 11.6367 3.37166 11.8288 3.3762C12.021 3.38075 12.21 3.42553 12.3838 3.50765C12.9788 3.7928 13.65 3.87789 14.2973 3.75023C14.9446 3.62257 15.5333 3.289 15.9755 2.79932C16.1085 2.66042 16.2682 2.54989 16.4451 2.47437C16.622 2.39886 16.8123 2.35993 17.0046 2.35993C17.1969 2.35993 17.3873 2.39886 17.5642 2.47437C17.741 2.54989 17.9008 2.66042 18.0338 2.79932C18.4763 3.29109 19.0659 3.62658 19.7147 3.75574C20.3635 3.8849 21.0367 3.8008 21.6338 3.51598C21.8074 3.43252 21.9966 3.38668 22.1891 3.38147C22.3817 3.37626 22.5731 3.4118 22.7509 3.48577C22.9288 3.55973 23.0889 3.67044 23.221 3.81065C23.353 3.95085 23.454 4.11738 23.5171 4.29932C23.7422 4.93451 24.1703 5.47787 24.7352 5.8454C25.3 6.21294 25.9702 6.38418 26.6421 6.33265C26.8333 6.33312 27.0224 6.37323 27.1973 6.45043C27.3722 6.52764 27.5293 6.64028 27.6585 6.78123C27.7877 6.92218 27.8862 7.08838 27.948 7.26935C28.0097 7.45032 28.0333 7.64212 28.0171 7.83265C27.9894 8.48467 28.1721 9.12833 28.5382 9.66855C28.9044 10.2088 29.4346 10.6169 30.0505 10.8327C30.2341 10.8935 30.4024 10.9932 30.5441 11.1248C30.6859 11.2564 30.7976 11.417 30.8719 11.5956C30.9462 11.7741 30.9812 11.9666 30.9747 12.1599C30.9681 12.3532 30.92 12.5429 30.8338 12.716C30.5487 13.311 30.4636 13.9822 30.5912 14.6295C30.7189 15.2768 31.0524 15.8655 31.5421 16.3077C31.6878 16.4367 31.8043 16.5951 31.8842 16.7725C31.964 16.9499 32.0053 17.1423 32.0053 17.3368C32.0053 17.5314 31.964 17.7237 31.8842 17.9011C31.8043 18.0785 31.6878 18.237 31.5421 18.366Z" fill="white"/>
<path d="M19.6167 14.0908C17.6334 10.0825 17.6917 9.84082 17 9.84082C16.3084 9.84082 16.3667 10.0742 14.3834 14.0908C9.96671 14.7325 9.75837 14.5992 9.54171 15.2575C9.32504 15.9158 9.54171 15.9408 12.775 19.0575C12.0167 23.4575 11.8334 23.6242 12.3917 24.0575C12.95 24.4908 13.0417 24.2408 17 22.1575C21.025 24.2742 20.8334 24.2158 21.1167 24.2158C21.2392 24.2176 21.3605 24.1924 21.4721 24.1419C21.5837 24.0915 21.6828 24.0171 21.7623 23.924C21.8419 23.8309 21.9 23.7214 21.9324 23.6034C21.9649 23.4853 21.9709 23.3615 21.95 23.2408L21.2334 19.0742L24.2584 16.1325C24.3709 16.0238 24.4505 15.8856 24.4882 15.7338C24.5258 15.5819 24.52 15.4225 24.4713 15.2739C24.4226 15.1252 24.333 14.9932 24.2128 14.8931C24.0927 14.7929 23.9467 14.7286 23.7917 14.7075L19.6167 14.0908ZM19.75 18.1742C19.3334 18.5825 19.4917 18.7658 20.0167 21.8325C17.1084 20.3075 17.275 20.3575 17 20.3575C16.725 20.3575 16.8917 20.3075 13.9834 21.8325C14.5167 18.7492 14.6667 18.5742 14.25 18.1742L12.125 16.0992L15.0584 15.6742C15.6417 15.5908 15.625 15.3492 17 12.5575C18.3917 15.3742 18.3667 15.5908 18.9417 15.6742L21.875 16.0992L19.75 18.1742Z" fill="white"/>
</svg>
