<svg width="272" height="58" viewBox="0 0 272 58" fill="none" xmlns="http://www.w3.org/2000/svg">
<g clip-path="url(#clip0_116_820)">
<path d="M136 8.23633H131.774V57.994H136V8.23633Z" fill="#51443D"/>
<path fill-rule="evenodd" clip-rule="evenodd" d="M271.434 23.9662L136 6.76929V11.1139L267.071 27.5983V53.8456L136 53.6699V57.9941H271.434V23.9662Z" fill="url(#paint0_linear_116_820)"/>
<path fill-rule="evenodd" clip-rule="evenodd" d="M271.434 17.1969L136 0V4.34462L271.434 21.3776V17.1969Z" fill="url(#paint1_linear_116_820)"/>
<path fill-rule="evenodd" clip-rule="evenodd" d="M0.566895 17.1969L136 0V4.34462L0.566895 21.3776V17.1969Z" fill="url(#paint2_linear_116_820)"/>
<path fill-rule="evenodd" clip-rule="evenodd" d="M181.145 13.48H176.919V57.9941H181.145V13.48Z" fill="url(#paint3_linear_116_820)"/>
<path fill-rule="evenodd" clip-rule="evenodd" d="M226.29 18.7236H222.064V57.9941H226.29V18.7236Z" fill="url(#paint4_linear_116_820)"/>
<path fill-rule="evenodd" clip-rule="evenodd" d="M0.566895 23.9662L136 6.76929V11.1139L4.92916 27.5983V53.8456L136 53.6699V57.9941H0.566895V23.9662Z" fill="url(#paint5_linear_116_820)"/>
<path fill-rule="evenodd" clip-rule="evenodd" d="M136 6.76929L0.566895 23.9662V57.9941H136V6.76929ZM97.2982 54.5308V15.1647L117.001 19.9652V45.171L97.2982 54.5308ZM52.0139 21.5786V54.8383L66.9616 45.4785V26.3801L52.0139 21.5786ZM7.27434 54.9271V28.0277L22.222 31.9107V47.3575L7.27434 54.9271Z" fill="url(#paint6_linear_116_820)"/>
<path d="M271.433 23.9662H267.208V57.994H271.433V23.9662Z" fill="#51443D"/>
<path fill-rule="evenodd" clip-rule="evenodd" d="M174.703 48.8861C162.833 48.605 150.963 48.3248 139.093 48.0437V50.2848C150.963 50.5659 162.834 50.8461 174.703 51.1282V48.8871" fill="#E0B195"/>
<path fill-rule="evenodd" clip-rule="evenodd" d="M174.703 43.8445C162.833 43.4101 150.963 42.9748 139.093 42.5404V44.7825C150.963 45.2169 162.834 45.6522 174.703 46.0866V43.8435" fill="#E0B195"/>
<path fill-rule="evenodd" clip-rule="evenodd" d="M174.703 38.8029C162.833 38.2143 150.963 37.6257 139.093 37.0371V39.2812C150.963 39.8698 162.834 40.4583 174.703 41.0469V38.8029Z" fill="#E0B195"/>
<path fill-rule="evenodd" clip-rule="evenodd" d="M174.703 33.7614C162.833 33.0186 150.963 32.2758 139.093 31.5339V33.7799C150.963 34.5218 162.834 35.2646 174.703 36.0074V33.7614Z" fill="#E0B195"/>
<path fill-rule="evenodd" clip-rule="evenodd" d="M174.703 28.7198C162.833 27.8237 150.963 26.9267 139.093 26.0306V28.2776C150.963 29.1737 162.834 30.0707 174.703 30.9668V28.7188" fill="#E0B195"/>
<path fill-rule="evenodd" clip-rule="evenodd" d="M174.703 23.6782C162.833 22.6279 150.963 21.5776 139.093 20.5273V22.7773C150.963 23.8275 162.834 24.8778 174.703 25.9281V23.6792" fill="#E0B195"/>
<path fill-rule="evenodd" clip-rule="evenodd" d="M174.703 18.6377L139.092 15.0251V17.276L174.703 20.8876V18.6377Z" fill="#E0B195"/>
<path fill-rule="evenodd" clip-rule="evenodd" d="M219.986 49.1379C208.116 48.7036 196.246 48.2682 184.376 47.8339V50.076C196.246 50.5103 208.117 50.9457 219.986 51.38V49.137" fill="#E0B195"/>
<path fill-rule="evenodd" clip-rule="evenodd" d="M219.986 44.0963C208.116 43.5077 196.246 42.9192 184.376 42.3306V44.5756C196.246 45.1642 208.117 45.7528 219.986 46.3414V44.0973" fill="#E0B195"/>
<path fill-rule="evenodd" clip-rule="evenodd" d="M219.986 39.0557C208.116 38.3129 196.246 37.5701 184.376 36.8282V39.0743C196.246 39.8161 208.117 40.5589 219.986 41.3017V39.0557Z" fill="#E0B195"/>
<path fill-rule="evenodd" clip-rule="evenodd" d="M219.986 34.0142C208.116 33.1182 196.246 32.2211 184.376 31.3251V33.5721C196.246 34.4681 208.117 35.3652 219.986 36.2612V34.0133" fill="#E0B195"/>
<path fill-rule="evenodd" clip-rule="evenodd" d="M219.986 28.9726C208.116 27.9223 196.246 26.8721 184.376 25.8218V28.0717C196.246 29.122 208.117 30.1723 219.986 31.2225V28.9736" fill="#E0B195"/>
<path fill-rule="evenodd" clip-rule="evenodd" d="M219.986 23.931L184.376 20.3185V22.5694L219.986 26.1819V23.931Z" fill="#E0B195"/>
<path fill-rule="evenodd" clip-rule="evenodd" d="M264.726 49.4199C252.855 48.8314 240.986 48.2428 229.115 47.6542V49.8982C240.986 50.4868 252.856 51.0754 264.726 51.664V49.4199Z" fill="#E0B195"/>
<path fill-rule="evenodd" clip-rule="evenodd" d="M264.726 44.3785C252.855 43.6357 240.986 42.8928 229.115 42.151V44.397C240.986 45.1388 252.856 45.8817 264.726 46.6245V44.3785Z" fill="#E0B195"/>
<path fill-rule="evenodd" clip-rule="evenodd" d="M264.726 39.3369C252.855 38.4408 240.986 37.5438 229.115 36.6477V38.8947C240.986 39.7907 252.856 40.6868 264.726 41.5838V39.3359" fill="#E0B195"/>
<path fill-rule="evenodd" clip-rule="evenodd" d="M264.726 34.2953C252.855 33.245 240.986 32.1947 229.115 31.1444V33.3933C240.986 34.4436 252.856 35.4939 264.726 36.5442V34.2943" fill="#E0B195"/>
<path fill-rule="evenodd" clip-rule="evenodd" d="M264.726 29.2538L229.115 25.6412V27.8931L264.726 31.5047V29.2538Z" fill="#E0B195"/>
<path fill-rule="evenodd" clip-rule="evenodd" d="M133.819 0.750621L136 0L138.181 0.750621V8.94108H133.819V0.750621Z" fill="#51443D"/>
</g>
<defs>
<linearGradient id="paint0_linear_116_820" x1="203.717" y1="6.76929" x2="203.717" y2="57.9941" gradientUnits="userSpaceOnUse">
<stop stop-color="#51443D"/>
<stop offset="1" stop-color="#785745"/>
</linearGradient>
<linearGradient id="paint1_linear_116_820" x1="203.717" y1="0" x2="203.717" y2="21.3776" gradientUnits="userSpaceOnUse">
<stop stop-color="#51443D"/>
<stop offset="1" stop-color="#785745"/>
</linearGradient>
<linearGradient id="paint2_linear_116_820" x1="68.2836" y1="0" x2="68.2836" y2="21.3776" gradientUnits="userSpaceOnUse">
<stop stop-color="#51443D"/>
<stop offset="1" stop-color="#785745"/>
</linearGradient>
<linearGradient id="paint3_linear_116_820" x1="179.032" y1="13.48" x2="179.032" y2="57.9941" gradientUnits="userSpaceOnUse">
<stop stop-color="#51443D"/>
<stop offset="1" stop-color="#785745"/>
</linearGradient>
<linearGradient id="paint4_linear_116_820" x1="224.177" y1="18.7236" x2="224.177" y2="57.9941" gradientUnits="userSpaceOnUse">
<stop stop-color="#51443D"/>
<stop offset="1" stop-color="#785745"/>
</linearGradient>
<linearGradient id="paint5_linear_116_820" x1="68.2836" y1="6.76929" x2="68.2836" y2="57.9941" gradientUnits="userSpaceOnUse">
<stop stop-color="#51443D"/>
<stop offset="1" stop-color="#785745"/>
</linearGradient>
<linearGradient id="paint6_linear_116_820" x1="68.2836" y1="6.76929" x2="68.2836" y2="57.9941" gradientUnits="userSpaceOnUse">
<stop stop-color="#51443D"/>
<stop offset="1" stop-color="#785745"/>
</linearGradient>
<clipPath id="clip0_116_820">
<rect width="272" height="58" fill="white"/>
</clipPath>
</defs>
</svg>
