<svg width="118" height="47" viewBox="0 0 118 47" fill="none" xmlns="http://www.w3.org/2000/svg">
<path d="M0.056 43L4.24 31.8H7.32L11.544 43H8.552L7.76 40.728H3.744L2.968 43H0.056ZM4.344 38.512H7.144L5.736 34.64L4.344 38.512ZM13.7138 43V31.8H16.3698V35.952H20.7858V31.8H23.4418V43H20.7858V38.376H16.3698V43H13.7138ZM26.8888 43V31.8H33.7448V34.224H29.5448V43H26.8888ZM34.1904 43L38.3744 31.8H41.4544L45.6784 43H42.6864L41.8944 40.728H37.8784L37.1024 43H34.1904ZM38.4784 38.512H41.2784L39.8704 34.64L38.4784 38.512ZM47.8481 43V31.8H52.3361C53.1735 31.8 53.9148 31.9467 54.5601 32.24C55.2055 32.528 55.7121 32.9493 56.0801 33.504C56.4535 34.0587 56.6401 34.7253 56.6401 35.504C56.6401 36.2933 56.4695 36.9627 56.1281 37.512C55.7868 38.0613 55.2908 38.48 54.6401 38.768C53.9895 39.056 53.2001 39.2 52.2721 39.2H50.5041V43H47.8481ZM50.5041 36.976H52.2081C52.7681 36.976 53.2028 36.8667 53.5121 36.648C53.8268 36.424 53.9841 36.056 53.9841 35.544C53.9841 35.032 53.8215 34.6613 53.4961 34.432C53.1761 34.1973 52.7521 34.08 52.2241 34.08H50.5041V36.976Z" fill="#51443D"/>
<path d="M64.3478 43.24C63.1904 43.24 62.1691 43.0027 61.2838 42.528C60.3984 42.0533 59.7078 41.3813 59.2118 40.512C58.7158 39.6427 58.4678 38.616 58.4678 37.432C58.4678 36.568 58.6118 35.7787 58.8997 35.064C59.1931 34.344 59.6038 33.7227 60.1318 33.2C60.6651 32.6773 61.2918 32.2747 62.0118 31.992C62.7371 31.704 63.5291 31.56 64.3878 31.56C65.3211 31.56 66.1051 31.6773 66.7398 31.912C67.3744 32.1467 67.9478 32.48 68.4598 32.912L67.1318 35.096C66.8224 34.776 66.4491 34.5387 66.0118 34.384C65.5744 34.224 65.0918 34.144 64.5638 34.144C64.0411 34.144 63.5744 34.2213 63.1638 34.376C62.7584 34.5253 62.4118 34.7413 62.1238 35.024C61.8411 35.3067 61.6251 35.648 61.4758 36.048C61.3264 36.448 61.2518 36.896 61.2518 37.392C61.2518 38.0747 61.3851 38.6587 61.6518 39.144C61.9238 39.6293 62.3104 40.0027 62.8118 40.264C63.3131 40.52 63.9131 40.648 64.6118 40.648C65.1131 40.648 65.6091 40.5733 66.0998 40.424C66.5958 40.2693 67.0651 40.0213 67.5078 39.68L68.7238 41.912C68.2064 42.312 67.5878 42.6347 66.8678 42.88C66.1478 43.12 65.3078 43.24 64.3478 43.24ZM73.1036 43V34.224H70.1196V31.8H78.7596V34.224H75.7756V43H73.1036ZM81.1856 43V31.8H85.6736C86.511 31.8 87.2523 31.9467 87.8976 32.24C88.543 32.528 89.0496 32.9493 89.4176 33.504C89.791 34.0587 89.9776 34.7253 89.9776 35.504C89.9776 36.2933 89.807 36.9627 89.4656 37.512C89.1243 38.0613 88.6283 38.48 87.9776 38.768C87.327 39.056 86.5376 39.2 85.6096 39.2H83.8416V43H81.1856ZM83.8416 36.976H85.5456C86.1056 36.976 86.5403 36.8667 86.8496 36.648C87.1643 36.424 87.3216 36.056 87.3216 35.544C87.3216 35.032 87.159 34.6613 86.8336 34.432C86.5136 34.1973 86.0896 34.08 85.5616 34.08H83.8416V36.976ZM97.7813 43.24C96.9226 43.24 96.1279 43.0933 95.3973 42.8C94.6719 42.5013 94.0399 42.088 93.5013 41.56C92.9626 41.032 92.5439 40.4133 92.2453 39.704C91.9519 38.9947 91.8053 38.2267 91.8053 37.4C91.8053 36.568 91.9519 35.7973 92.2453 35.088C92.5439 34.3787 92.9626 33.76 93.5013 33.232C94.0399 32.704 94.6719 32.2933 95.3973 32C96.1279 31.7067 96.9226 31.56 97.7813 31.56C98.6453 31.56 99.4399 31.7093 100.165 32.008C100.891 32.3067 101.523 32.7227 102.061 33.256C102.6 33.7893 103.016 34.4107 103.309 35.12C103.608 35.824 103.757 36.584 103.757 37.4C103.757 38.2267 103.608 38.9947 103.309 39.704C103.016 40.4133 102.6 41.032 102.061 41.56C101.523 42.088 100.891 42.5013 100.165 42.8C99.4399 43.0933 98.6453 43.24 97.7813 43.24ZM97.7813 40.744C98.2453 40.744 98.6693 40.6667 99.0533 40.512C99.4426 40.3573 99.7813 40.1333 100.069 39.84C100.357 39.5467 100.579 39.1947 100.733 38.784C100.893 38.368 100.973 37.9067 100.973 37.4C100.973 36.7173 100.835 36.1253 100.557 35.624C100.285 35.1227 99.9066 34.736 99.4213 34.464C98.9413 34.1867 98.3946 34.048 97.7813 34.048C97.3226 34.048 96.8986 34.128 96.5093 34.288C96.1199 34.4427 95.7813 34.6667 95.4933 34.96C95.2106 35.2533 94.9893 35.6053 94.8293 36.016C94.6693 36.4267 94.5893 36.888 94.5893 37.4C94.5893 38.0773 94.7279 38.6667 95.0053 39.168C95.2826 39.6693 95.6613 40.0587 96.1413 40.336C96.6266 40.608 97.1733 40.744 97.7813 40.744ZM106.504 43V31.8H109.136V38.8L113.672 31.8H116.312V43H113.68V35.912L109.128 43H106.504ZM111.408 30.68C110.742 30.68 110.16 30.5547 109.664 30.304C109.168 30.048 108.784 29.696 108.512 29.248C108.246 28.8 108.118 28.28 108.128 27.688H110.256C110.235 28.0773 110.328 28.392 110.536 28.632C110.75 28.8667 111.04 28.984 111.408 28.984C111.776 28.984 112.064 28.8667 112.272 28.632C112.48 28.392 112.576 28.0773 112.56 27.688H114.688C114.699 28.2693 114.566 28.7867 114.288 29.24C114.016 29.688 113.63 30.04 113.128 30.296C112.632 30.552 112.059 30.68 111.408 30.68Z" fill="#1197E2"/>
<g clip-path="url(#clip0_116_954)">
<path fill-rule="evenodd" clip-rule="evenodd" d="M115.759 10.3304L58 2.91797V4.79065L113.898 11.896V23.2095L58 23.1338V24.9976H115.759V10.3304Z" fill="#51443D"/>
<path fill-rule="evenodd" clip-rule="evenodd" d="M0.241699 10.3304L58.0001 2.91797V24.9976H0.241699V10.3304Z" fill="#51443D"/>
<path d="M57.9999 3.55029H56.1978V24.9976H57.9999V3.55029Z" fill="#51443D"/>
<path fill-rule="evenodd" clip-rule="evenodd" d="M77.2528 5.81055H75.4507V24.9977H77.2528V5.81055Z" fill="#51443D"/>
<path fill-rule="evenodd" clip-rule="evenodd" d="M96.5058 8.07031H94.7036V24.9972H96.5058V8.07031Z" fill="#51443D"/>
<path d="M115.758 10.3301H113.956V24.9973H115.758V10.3301Z" fill="#51443D"/>
<path fill-rule="evenodd" clip-rule="evenodd" d="M74.5057 21.0716C69.4432 20.9504 64.3813 20.8297 59.3188 20.7085V21.6745C64.3813 21.7957 69.4437 21.9164 74.5057 22.038V21.072" fill="#E0B195"/>
<path fill-rule="evenodd" clip-rule="evenodd" d="M74.5057 18.8985C69.4432 18.7113 64.3813 18.5237 59.3188 18.3364V19.3028C64.3813 19.4901 69.4437 19.6777 74.5057 19.8649V18.8981" fill="#E0B195"/>
<path fill-rule="evenodd" clip-rule="evenodd" d="M74.5057 16.7255C69.4432 16.4718 64.3813 16.2181 59.3188 15.9644V16.9316C64.3813 17.1853 69.4437 17.439 74.5057 17.6927V16.7255Z" fill="#E0B195"/>
<path fill-rule="evenodd" clip-rule="evenodd" d="M74.5057 14.5524C69.4432 14.2322 64.3813 13.912 59.3188 13.5923V14.5604C64.3813 14.8801 69.4437 15.2003 74.5057 15.5205V14.5524Z" fill="#E0B195"/>
<path fill-rule="evenodd" clip-rule="evenodd" d="M74.5057 12.3793C69.4432 11.9931 64.3813 11.6064 59.3188 11.2202V12.1887C64.3813 12.575 69.4437 12.9616 74.5057 13.3479V12.3789" fill="#E0B195"/>
<path fill-rule="evenodd" clip-rule="evenodd" d="M74.5057 10.2063C69.4432 9.75356 64.3813 9.30085 59.3188 8.84814V9.81793C64.3813 10.2706 69.4437 10.7234 74.5057 11.1761V10.2067" fill="#E0B195"/>
<path fill-rule="evenodd" clip-rule="evenodd" d="M74.5056 8.0337L59.3184 6.47656V7.44677L74.5056 9.00349V8.0337Z" fill="#E0B195"/>
<path fill-rule="evenodd" clip-rule="evenodd" d="M93.8177 21.1803C88.7552 20.993 83.6933 20.8054 78.6309 20.6182V21.5846C83.6933 21.7718 88.7557 21.9595 93.8177 22.1467V21.1798" fill="#E0B195"/>
<path fill-rule="evenodd" clip-rule="evenodd" d="M93.8177 19.0072C88.7552 18.7535 83.6933 18.4998 78.6309 18.2461V19.2138C83.6933 19.4675 88.7557 19.7212 93.8177 19.9749V19.0076" fill="#E0B195"/>
<path fill-rule="evenodd" clip-rule="evenodd" d="M93.8177 16.8341C88.7552 16.514 83.6933 16.1938 78.6309 15.874V16.8421C83.6933 17.1619 88.7557 17.4821 93.8177 17.8022V16.8341Z" fill="#E0B195"/>
<path fill-rule="evenodd" clip-rule="evenodd" d="M93.8177 14.6611C88.7552 14.2748 83.6933 13.8882 78.6309 13.502V14.4705C83.6933 14.8567 88.7557 15.2434 93.8177 15.6296V14.6607" fill="#E0B195"/>
<path fill-rule="evenodd" clip-rule="evenodd" d="M93.8177 12.488C88.7552 12.0353 83.6933 11.5826 78.6309 11.1299V12.0997C83.6933 12.5524 88.7557 13.0051 93.8177 13.4578V12.4884" fill="#E0B195"/>
<path fill-rule="evenodd" clip-rule="evenodd" d="M93.8177 10.3149L78.6309 8.75781V9.72802L93.8177 11.2852V10.3149Z" fill="#E0B195"/>
<path fill-rule="evenodd" clip-rule="evenodd" d="M112.898 21.3016C107.835 21.0479 102.773 20.7942 97.7109 20.5405V21.5078C102.773 21.7615 107.836 22.0152 112.898 22.2689V21.3016Z" fill="#E0B195"/>
<path fill-rule="evenodd" clip-rule="evenodd" d="M112.898 19.1286C107.835 18.8084 102.773 18.4882 97.7109 18.1685V19.1366C102.773 19.4563 107.836 19.7765 112.898 20.0967V19.1286Z" fill="#E0B195"/>
<path fill-rule="evenodd" clip-rule="evenodd" d="M112.898 16.9555C107.835 16.5693 102.773 16.1826 97.7109 15.7964V16.7649C102.773 17.1511 107.836 17.5374 112.898 17.924V16.9551" fill="#E0B195"/>
<path fill-rule="evenodd" clip-rule="evenodd" d="M112.898 14.7824C107.835 14.3297 102.773 13.877 97.7109 13.4243V14.3937C102.773 14.8464 107.836 15.2991 112.898 15.7518V14.782" fill="#E0B195"/>
<path fill-rule="evenodd" clip-rule="evenodd" d="M112.898 12.6094L97.7109 11.0522V12.0229L112.898 13.5796V12.6094Z" fill="#E0B195"/>
<path fill-rule="evenodd" clip-rule="evenodd" d="M0.241699 10.3304L58.0001 2.91797V4.79065L2.10208 11.896V23.2095L58.0001 23.1338V24.9976H0.241699V10.3304Z" fill="#51443D"/>
<path fill-rule="evenodd" clip-rule="evenodd" d="M41.4946 6.53662V23.5048L49.8974 19.4704V8.60579L41.4946 6.53662Z" fill="white"/>
<path fill-rule="evenodd" clip-rule="evenodd" d="M22.1821 9.30127V23.6373L28.5569 19.6029V11.3709L22.1821 9.30127Z" fill="white"/>
<path fill-rule="evenodd" clip-rule="evenodd" d="M3.10205 12.0811V23.6756L9.4768 20.4128V13.7547L3.10205 12.0811Z" fill="white"/>
<path fill-rule="evenodd" clip-rule="evenodd" d="M115.759 7.41247L58 0V1.87268L115.759 9.21447V7.41247Z" fill="#51443D"/>
<path fill-rule="evenodd" clip-rule="evenodd" d="M0.241699 7.41247L58.0001 0V1.87268L0.241699 9.21447V7.41247Z" fill="#51443D"/>
<path fill-rule="evenodd" clip-rule="evenodd" d="M57.0698 0.323544L58 0L58.9302 0.323544V3.85391H57.0698V0.323544Z" fill="#51443D"/>
</g>
<defs>
<clipPath id="clip0_116_954">
<rect width="116" height="25" fill="white"/>
</clipPath>
</defs>
</svg>
