<svg width="40" height="40" viewBox="0 0 40 40" fill="none" xmlns="http://www.w3.org/2000/svg">
<g clip-path="url(#clip0_116_618)">
<path d="M20.0007 5C17.6932 5 15.4376 5.68424 13.519 6.96619C11.6004 8.24814 10.1051 10.0702 9.22206 12.202C8.33904 14.3338 8.108 16.6796 8.55816 18.9427C9.00832 21.2058 10.1195 23.2846 11.7511 24.9162C13.3827 26.5479 15.4615 27.659 17.7246 28.1092C19.9877 28.5593 22.3335 28.3283 24.4653 27.4453C26.5971 26.5622 28.4192 25.0669 29.7011 23.1483C30.9831 21.2297 31.6673 18.9741 31.6673 16.6667C31.6673 13.5725 30.4382 10.605 28.2502 8.41709C26.0623 6.22916 23.0948 5 20.0007 5ZM20.0007 26.6667C18.0228 26.6667 16.0894 26.0802 14.445 24.9814C12.8005 23.8825 11.5187 22.3208 10.7619 20.4935C10.005 18.6662 9.80695 16.6556 10.1928 14.7158C10.5787 12.776 11.5311 10.9941 12.9296 9.5956C14.3281 8.19707 16.1099 7.24467 18.0498 6.85881C19.9896 6.47296 22.0002 6.67099 23.8275 7.42787C25.6548 8.18475 27.2165 9.46647 28.3154 11.111C29.4142 12.7555 30.0007 14.6889 30.0007 16.6667C30.0007 19.3188 28.9471 21.8624 27.0717 23.7377C25.1964 25.6131 22.6528 26.6667 20.0007 26.6667Z" fill="white"/>
<path d="M35.6421 14.3917C35.4219 14.1925 35.272 13.9274 35.2149 13.636C35.1578 13.3446 35.1966 13.0425 35.3255 12.775C35.5085 12.3907 35.6087 11.9723 35.6194 11.5467C35.6301 11.1212 35.5512 10.6982 35.3877 10.3052C35.2242 9.91224 34.9799 9.55805 34.6705 9.2657C34.3612 8.97334 33.9937 8.74937 33.5921 8.60833C33.3101 8.51343 33.0673 8.32797 32.9015 8.08082C32.7357 7.83366 32.6563 7.53865 32.6755 7.24167C32.7001 6.80271 32.6297 6.36361 32.4693 5.95429C32.3088 5.54497 32.062 5.17506 31.7456 4.86977C31.4293 4.56448 31.0508 4.33099 30.636 4.1852C30.2213 4.03942 29.7799 3.98478 29.3421 4.025C29.0591 4.026 28.783 3.93804 28.5527 3.77355C28.3224 3.60906 28.1496 3.37636 28.0588 3.10833C27.9178 2.70673 27.6938 2.33931 27.4014 2.02996C27.1091 1.7206 26.7549 1.47624 26.3619 1.31275C25.9689 1.14926 25.5459 1.07032 25.1204 1.08104C24.6949 1.09177 24.2764 1.19192 23.8921 1.375C22.3255 2.09167 22.2671 0 20.0005 0C19.5707 0.0023777 19.1462 0.0948227 18.7543 0.271371C18.3625 0.447919 18.012 0.70465 17.7255 1.025C17.5233 1.24081 17.2584 1.38753 16.9683 1.44437C16.6781 1.50121 16.3774 1.46528 16.1088 1.34167C15.7247 1.15724 15.3061 1.05602 14.8802 1.04463C14.4543 1.03324 14.0308 1.11194 13.6374 1.27558C13.2441 1.43922 12.8897 1.6841 12.5976 1.99419C12.3054 2.30429 12.0821 2.6726 11.9421 3.075C11.8444 3.35695 11.6572 3.59918 11.4089 3.7647C11.1606 3.93022 10.865 4.00993 10.5671 3.99167C10.1282 3.96706 9.68907 4.03739 9.27976 4.19785C8.87044 4.35831 8.50053 4.60513 8.19524 4.92149C7.88994 5.23786 7.65645 5.61632 7.51067 6.0311C7.36489 6.44587 7.31024 6.8872 7.35047 7.325C7.35146 7.608 7.2635 7.88415 7.09901 8.11444C6.93452 8.34473 6.70182 8.5175 6.4338 8.60833C6.033 8.75046 5.66646 8.97505 5.35783 9.26761C5.0492 9.56016 4.80535 9.91418 4.64201 10.3068C4.47868 10.6995 4.39949 11.122 4.40956 11.5471C4.41962 11.9722 4.51873 12.3905 4.70047 12.775C4.84071 13.0491 4.88491 13.3623 4.82598 13.6645C4.76705 13.9667 4.60841 14.2404 4.37547 14.4417C4.05527 14.727 3.79903 15.0768 3.62358 15.4682C3.44813 15.8596 3.35742 16.2836 3.35742 16.7125C3.35742 17.1414 3.44813 17.5654 3.62358 17.9568C3.79903 18.3482 4.05527 18.698 4.37547 18.9833C4.59574 19.1825 4.74563 19.4476 4.80271 19.739C4.85979 20.0304 4.821 20.3325 4.69213 20.6C4.5077 20.9841 4.40648 21.4027 4.39509 21.8286C4.3837 22.2545 4.46241 22.678 4.62604 23.0714C4.78968 23.4647 5.03457 23.8191 5.34466 24.1112C5.65475 24.4034 6.02306 24.6267 6.42547 24.7667C6.70741 24.8644 6.94964 25.0516 7.11516 25.2999C7.28068 25.5482 7.3604 25.8438 7.34213 26.1417C7.30151 26.8296 7.49763 27.5107 7.89789 28.0717C8.29815 28.6326 8.87841 29.0396 9.54213 29.225C5.61713 36.0333 5.6088 35.7333 5.99213 36.3083C6.37547 36.8833 6.6338 36.6917 10.3005 36.25C11.7338 39.6333 11.7088 40 12.3921 40C13.0755 40 12.9338 40 17.4755 32.1083C17.5687 32.1685 17.6553 32.2383 17.7338 32.3167C18.0191 32.6369 18.369 32.8931 18.7603 33.0686C19.1517 33.244 19.5757 33.3347 20.0046 33.3347C20.4335 33.3347 20.8576 33.244 21.2489 33.0686C21.6403 32.8931 21.9901 32.6369 22.2755 32.3167C22.3517 32.2416 22.4355 32.1745 22.5255 32.1167C27.1838 40.1917 26.9088 40.0583 27.6088 40.0083C28.3088 39.9583 28.2671 39.65 29.7171 36.2417C33.3588 36.6833 33.6505 36.875 34.0255 36.3C34.4005 35.725 34.2088 35.6917 30.4755 29.225C31.1523 29.031 31.7411 28.6089 32.1421 28.0302C32.5431 27.4514 32.7316 26.7518 32.6755 26.05C32.6745 25.767 32.7624 25.4908 32.9269 25.2606C33.0914 25.0303 33.3241 24.8575 33.5921 24.7667C33.9929 24.6245 34.3595 24.4 34.6681 24.1074C34.9767 23.8148 35.2206 23.4608 35.3839 23.0682C35.5473 22.6755 35.6264 22.253 35.6164 21.8279C35.6063 21.4028 35.5072 20.9845 35.3255 20.6C35.1993 20.3319 35.1619 20.0306 35.2189 19.7398C35.2758 19.449 35.4241 19.184 35.6421 18.9833C35.9719 18.6986 36.2365 18.3461 36.4178 17.95C36.5991 17.5538 36.693 17.1232 36.693 16.6875C36.693 16.2518 36.5991 15.8212 36.4178 15.425C36.2365 15.0289 35.9719 14.6764 35.6421 14.3917ZM12.5505 37.3083C11.0838 33.8833 11.8671 34.3667 8.22547 34.8083C11.6088 28.975 11.2421 29.5 11.3421 29.5583C11.606 29.7194 11.8062 29.9667 11.9088 30.2583C12.1567 30.9711 12.6608 31.5663 13.323 31.9282C13.9852 32.2901 14.7583 32.3929 15.4921 32.2167L12.5505 37.3083ZM27.4505 37.3083L24.5088 32.2167C25.2415 32.3926 26.0134 32.2895 26.6743 31.9275C27.3351 31.5655 27.8376 30.9705 28.0838 30.2583C28.2068 29.9452 28.4332 29.6835 28.7255 29.5167L31.7755 34.8083C28.1005 34.3583 28.8921 33.925 27.4505 37.3083ZM34.5421 17.6917C34.0481 18.1326 33.7109 18.7223 33.5816 19.3718C33.4523 20.0213 33.5379 20.6951 33.8255 21.2917C33.9103 21.465 33.9572 21.6545 33.9631 21.8474C33.969 22.0403 33.9337 22.2322 33.8596 22.4104C33.7855 22.5886 33.6742 22.749 33.5333 22.8808C33.3923 23.0127 33.2249 23.1129 33.0421 23.175C32.4069 23.4001 31.8636 23.8282 31.496 24.393C31.1285 24.9579 30.9573 25.6281 31.0088 26.3C31.0083 26.4912 30.9682 26.6802 30.891 26.8552C30.8138 27.0301 30.7012 27.1871 30.5602 27.3163C30.4193 27.4455 30.2531 27.5441 30.0721 27.6058C29.8911 27.6676 29.6993 27.6911 29.5088 27.675C28.857 27.6486 28.214 27.8318 27.674 28.1978C27.1341 28.5637 26.7257 29.0932 26.5088 29.7083C26.4445 29.8895 26.343 30.0551 26.2107 30.1946C26.0785 30.3341 25.9185 30.4443 25.741 30.5181C25.5636 30.5919 25.3726 30.6277 25.1804 30.6231C24.9883 30.6186 24.7992 30.5738 24.6255 30.4917C24.0299 30.2092 23.3594 30.1256 22.7127 30.2531C22.0661 30.3806 21.4775 30.7126 21.0338 31.2C20.9008 31.3389 20.741 31.4494 20.5642 31.5249C20.3873 31.6005 20.1969 31.6394 20.0046 31.6394C19.8123 31.6394 19.622 31.6005 19.4451 31.5249C19.2682 31.4494 19.1085 31.3389 18.9755 31.2C18.5345 30.7059 17.9448 30.3688 17.2953 30.2395C16.6459 30.1102 15.972 30.1958 15.3755 30.4833C15.2013 30.5669 15.0115 30.6128 14.8184 30.618C14.6253 30.6233 14.4332 30.5879 14.2548 30.5139C14.0763 30.44 13.9154 30.3294 13.7826 30.1891C13.6497 30.0489 13.5479 29.8822 13.4838 29.7C13.2627 29.0639 12.8367 28.5191 12.2727 28.1511C11.7087 27.7831 11.0384 27.6127 10.3671 27.6667C10.1759 27.6662 9.98689 27.6261 9.81196 27.5489C9.63703 27.4717 9.48001 27.359 9.35081 27.2181C9.2216 27.0771 9.12302 26.9109 9.06129 26.73C8.99955 26.549 8.97601 26.3572 8.99213 26.1667C9.01989 25.5146 8.8372 24.871 8.47105 24.3308C8.1049 23.7906 7.57471 23.3824 6.9588 23.1667C6.77522 23.1058 6.60686 23.0061 6.46513 22.8745C6.32341 22.7429 6.21162 22.5824 6.13734 22.4038C6.06306 22.2252 6.02802 22.0327 6.0346 21.8394C6.04118 21.6461 6.08922 21.4565 6.17547 21.2833C6.46061 20.6884 6.54571 20.0171 6.41805 19.3698C6.29039 18.7225 5.95682 18.1338 5.46713 17.6917C5.32152 17.5627 5.20493 17.4042 5.12509 17.2268C5.04525 17.0494 5.00397 16.857 5.00397 16.6625C5.00397 16.468 5.04525 16.2756 5.12509 16.0982C5.20493 15.9208 5.32152 15.7623 5.46713 15.6333C5.9589 15.1908 6.2944 14.6012 6.42356 13.9524C6.55272 13.3036 6.46862 12.6304 6.1838 12.0333C6.09755 11.8602 6.04951 11.6706 6.04293 11.4773C6.03635 11.284 6.07139 11.0915 6.14567 10.9129C6.21995 10.7343 6.33174 10.5738 6.47347 10.4422C6.61519 10.3105 6.78355 10.2109 6.96713 10.15C7.60233 9.9249 8.14569 9.49683 8.51322 8.93198C8.88075 8.36712 9.05199 7.69693 9.00047 7.025C8.99967 6.83342 9.03892 6.64378 9.11571 6.46825C9.19249 6.29272 9.3051 6.13518 9.44633 6.00572C9.58756 5.87626 9.75429 5.77774 9.93582 5.71648C10.1173 5.65523 10.3097 5.63258 10.5005 5.65C11.1525 5.67776 11.7961 5.49507 12.3364 5.12892C12.8766 4.76277 13.2847 4.23258 13.5005 3.61667C13.5647 3.43553 13.6663 3.26989 13.7985 3.13042C13.9308 2.99095 14.0908 2.88075 14.2682 2.80694C14.4457 2.73313 14.6367 2.69734 14.8288 2.70189C15.021 2.70643 15.21 2.75121 15.3838 2.83333C15.9788 3.11848 16.65 3.20357 17.2973 3.07591C17.9446 2.94825 18.5333 2.61469 18.9755 2.125C19.1085 1.9861 19.2682 1.87557 19.4451 1.80006C19.622 1.72455 19.8123 1.68562 20.0046 1.68562C20.1969 1.68562 20.3873 1.72455 20.5642 1.80006C20.741 1.87557 20.9008 1.9861 21.0338 2.125C21.4763 2.61677 22.0659 2.95227 22.7147 3.08143C23.3635 3.21059 24.0367 3.12648 24.6338 2.84167C24.8074 2.7582 24.9966 2.71236 25.1891 2.70715C25.3817 2.70195 25.5731 2.73749 25.7509 2.81145C25.9288 2.88541 26.0889 2.99613 26.221 3.13633C26.353 3.27653 26.454 3.44306 26.5171 3.625C26.7422 4.26019 27.1703 4.80356 27.7352 5.17109C28.3 5.53862 28.9702 5.70986 29.6421 5.65833C29.8333 5.6588 30.0224 5.69891 30.1973 5.77612C30.3722 5.85333 30.5293 5.96596 30.6585 6.10691C30.7877 6.24786 30.8862 6.41407 30.948 6.59504C31.0097 6.776 31.0333 6.96781 31.0171 7.15833C30.9894 7.81035 31.1721 8.45401 31.5382 8.99423C31.9044 9.53445 32.4346 9.94258 33.0505 10.1583C33.2341 10.2192 33.4024 10.3189 33.5441 10.4505C33.6859 10.5821 33.7976 10.7426 33.8719 10.9212C33.9462 11.0998 33.9812 11.2923 33.9747 11.4856C33.9681 11.6789 33.92 11.8685 33.8338 12.0417C33.5487 12.6366 33.4636 13.3079 33.5912 13.9552C33.7189 14.6025 34.0524 15.1912 34.5421 15.6333C34.6878 15.7623 34.8043 15.9208 34.8842 16.0982C34.964 16.2756 35.0053 16.468 35.0053 16.6625C35.0053 16.857 34.964 17.0494 34.8842 17.2268C34.8043 17.4042 34.6878 17.5627 34.5421 17.6917Z" fill="white"/>
<path d="M22.6167 13.4165C20.6334 9.40817 20.6917 9.1665 20 9.1665C19.3084 9.1665 19.3667 9.39984 17.3834 13.4165C12.9667 14.0582 12.7584 13.9248 12.5417 14.5832C12.325 15.2415 12.5417 15.2665 15.775 18.3832C15.0167 22.7832 14.8334 22.9498 15.3917 23.3832C15.95 23.8165 16.0417 23.5665 20 21.4832C24.025 23.5998 23.8334 23.5415 24.1167 23.5415C24.2392 23.5433 24.3605 23.5181 24.4721 23.4676C24.5837 23.4172 24.6828 23.3428 24.7623 23.2497C24.8419 23.1566 24.9 23.0471 24.9324 22.929C24.9649 22.811 24.9709 22.6872 24.95 22.5665L24.2334 18.3998L27.2584 15.4582C27.3709 15.3495 27.4505 15.2113 27.4882 15.0594C27.5258 14.9076 27.52 14.7482 27.4713 14.5995C27.4226 14.4509 27.333 14.3189 27.2128 14.2187C27.0927 14.1186 26.9467 14.0543 26.7917 14.0332L22.6167 13.4165ZM22.75 17.4998C22.3334 17.9082 22.4917 18.0915 23.0167 21.1582C20.1084 19.6332 20.275 19.6832 20 19.6832C19.725 19.6832 19.8917 19.6332 16.9834 21.1582C17.5167 18.0748 17.6667 17.8998 17.25 17.4998L15.125 15.4248L18.0584 14.9998C18.6417 14.9165 18.625 14.6748 20 11.8832C21.3917 14.6998 21.3667 14.9165 21.9417 14.9998L24.875 15.4248L22.75 17.4998Z" fill="white"/>
</g>
<defs>
<clipPath id="clip0_116_618">
<rect width="40" height="40" fill="white"/>
</clipPath>
</defs>
</svg>
