<svg width="32" height="32" viewBox="0 0 32 32" fill="none" xmlns="http://www.w3.org/2000/svg">
<g clip-path="url(#clip0_116_623)">
<path d="M28.6505 23.7926C28.0965 23.3805 27.3135 23.4956 26.9015 24.0494C26.6749 24.354 26.4324 24.6528 26.1807 24.9375C25.7235 25.4547 25.772 26.2447 26.2892 26.7019C26.5271 26.9122 26.8224 27.0154 27.1167 27.0154C27.4624 27.0154 27.8067 26.8727 28.0537 26.5933C28.3517 26.2562 28.6389 25.9023 28.9073 25.5415C29.3194 24.9877 29.2044 24.2046 28.6505 23.7926Z" fill="white"/>
<path d="M30.7409 17.9302C30.0668 17.7834 29.4005 18.2112 29.2537 18.8857C29.1728 19.2568 29.0752 19.6285 28.9633 19.9908C28.7595 20.6504 29.129 21.3503 29.7885 21.5541C29.9115 21.592 30.0357 21.6101 30.158 21.6101C30.6917 21.6101 31.186 21.2655 31.3518 20.7287C31.4847 20.2988 31.6006 19.8577 31.6965 19.4175C31.8433 18.743 31.4155 18.0771 30.7409 17.9302Z" fill="white"/>
<path d="M22.634 27.796C22.3022 27.9812 21.9585 28.1544 21.6128 28.3106C20.9836 28.5947 20.7039 29.3351 20.988 29.9642C21.1968 30.4265 21.6517 30.7001 22.128 30.7001C22.3 30.7001 22.4748 30.6644 22.6417 30.589C23.0519 30.4037 23.4593 30.1984 23.8528 29.9787C24.4556 29.6422 24.6714 28.8807 24.3348 28.278C23.9984 27.6753 23.2369 27.4595 22.634 27.796Z" fill="white"/>
<path d="M14.7496 6V15.4823L10.1659 20.0659C9.67777 20.5541 9.67777 21.3455 10.1659 21.8336C10.41 22.0778 10.7298 22.1998 11.0498 22.1998C11.3697 22.1998 11.6896 22.0777 11.9338 21.8336L16.8835 16.8839C17.1179 16.6495 17.2496 16.3315 17.2496 16V6C17.2496 5.30963 16.69 4.75 15.9996 4.75C15.3092 4.75 14.7496 5.30963 14.7496 6Z" fill="white"/>
<path d="M30.75 2.6875C30.0596 2.6875 29.5 3.24713 29.5 3.9375V7.4085C26.5905 2.8455 21.5094 0 16 0C11.7262 0 7.70831 1.66431 4.68625 4.68625C1.66431 7.70831 0 11.7262 0 16C0 20.2738 1.66431 24.2917 4.68625 27.3137C7.70831 30.3357 11.7262 32 16 32C16.0106 32 16.0208 31.9987 16.0312 31.9984C16.0417 31.9987 16.0519 32 16.0625 32C16.513 32 16.9679 31.981 17.4148 31.9436C18.1027 31.886 18.6137 31.2816 18.5562 30.5937C18.4985 29.9058 17.8949 29.3945 17.2062 29.4524C16.8284 29.4839 16.4437 29.5 16.0625 29.5C16.0519 29.5 16.0417 29.5013 16.0312 29.5016C16.0208 29.5013 16.0106 29.5 16 29.5C8.55606 29.5 2.5 23.4439 2.5 16C2.5 8.55606 8.55606 2.5 16 2.5C20.7974 2.5 25.2098 5.05706 27.621 9.125H24.1839C23.4936 9.125 22.9339 9.68462 22.9339 10.375C22.9339 11.0654 23.4936 11.625 24.1839 11.625H28C28.7612 11.625 29.4734 11.4111 30.0798 11.0404C30.1188 11.0182 30.1563 10.9942 30.1921 10.9684C31.2799 10.2527 32 9.02169 32 7.625V3.9375C32 3.24713 31.4404 2.6875 30.75 2.6875Z" fill="white"/>
</g>
<defs>
<clipPath id="clip0_116_623">
<rect width="32" height="32" fill="white"/>
</clipPath>
</defs>
</svg>
