<svg width="33" height="33" viewBox="0 0 33 33" fill="none" xmlns="http://www.w3.org/2000/svg">
<g clip-path="url(#clip0_116_615)">
<path d="M18.5711 8.28418H13.3933C12.8594 8.28418 12.4265 8.71705 12.4265 9.25098V16.5685H11.3223C10.7883 16.5685 10.3555 17.0014 10.3555 17.5353C10.3555 18.0693 10.7883 18.5021 11.3223 18.5021H12.4265V20.7107H11.3223C10.7883 20.7107 10.3555 21.1436 10.3555 21.6775C10.3555 22.2115 10.7883 22.6443 11.3223 22.6443H12.4265V24.7842C12.4265 25.3181 12.8594 25.751 13.3933 25.751C13.9273 25.751 14.3601 25.3181 14.3601 24.7842V22.6443H18.5711C19.105 22.6443 19.5379 22.2115 19.5379 21.6775C19.5379 21.1436 19.105 20.7107 18.5711 20.7107H14.3601V18.5021H18.5711C21.3882 18.5021 23.6801 16.2102 23.6801 13.3931C23.6801 10.5064 21.3286 8.28418 18.5711 8.28418ZM18.5711 16.5685H14.3601V10.2178H18.5711C20.3115 10.2178 21.7465 11.6216 21.7465 13.3932C21.7465 15.1441 20.322 16.5685 18.5711 16.5685Z" fill="white"/>
<path d="M16.5 0C7.40186 0 0 7.40186 0 16.5C0 25.5981 7.40186 33 16.5 33C25.5981 33 33 25.5981 33 16.5C33 7.40186 25.5981 0 16.5 0ZM16.5 31.0664C8.46805 31.0664 1.93359 24.532 1.93359 16.5C1.93359 8.46805 8.46805 1.93359 16.5 1.93359C24.532 1.93359 31.0664 8.46805 31.0664 16.5C31.0664 24.532 24.532 31.0664 16.5 31.0664Z" fill="white"/>
</g>
<defs>
<clipPath id="clip0_116_615">
<rect width="33" height="33" fill="white"/>
</clipPath>
</defs>
</svg>
