<svg width="160" height="86" viewBox="0 0 160 86" fill="none" xmlns="http://www.w3.org/2000/svg">
<rect width="160" height="65" fill="url(#paint0_linear_2026_2)"/>
<path d="M139 65H160V86L139 65Z" fill="url(#paint1_linear_2026_2)"/>
<g clip-path="url(#clip0_2026_2)">
<path fill-rule="evenodd" clip-rule="evenodd" d="M142.019 29.1568L79.6396 21.1514V23.1739L140.009 30.8476V43.0662L79.6396 42.9844V44.9974H142.019V29.1568Z" fill="white"/>
<path d="M79.6397 21.834H77.6934V44.9971H79.6397V21.834Z" fill="white"/>
<path fill-rule="evenodd" clip-rule="evenodd" d="M100.434 24.2754H98.4873V44.9975H100.434V24.2754Z" fill="white"/>
<path fill-rule="evenodd" clip-rule="evenodd" d="M121.227 26.7163H119.28V44.9974H121.227V26.7163Z" fill="white"/>
<path d="M142.019 29.1567H140.072V44.9973H142.019V29.1567Z" fill="white"/>
<path fill-rule="evenodd" clip-rule="evenodd" d="M97.4662 40.7574C91.9988 40.6265 86.5319 40.4961 81.0645 40.3652V41.4085C86.5319 41.5394 91.9993 41.6698 97.4662 41.8011V40.7578" fill="white"/>
<path fill-rule="evenodd" clip-rule="evenodd" d="M97.4662 38.4103C91.9988 38.2081 86.5319 38.0054 81.0645 37.8032V38.847C86.5319 39.0492 91.9993 39.2518 97.4662 39.454V38.4098" fill="white"/>
<path fill-rule="evenodd" clip-rule="evenodd" d="M97.4662 36.0632C91.9988 35.7892 86.5319 35.5152 81.0645 35.2412V36.2859C86.5319 36.5599 91.9993 36.8339 97.4662 37.1079V36.0632Z" fill="white"/>
<path fill-rule="evenodd" clip-rule="evenodd" d="M97.4662 33.7166C91.9988 33.3708 86.5319 33.025 81.0645 32.6797V33.7252C86.5319 34.0706 91.9993 34.4164 97.4662 34.7622V33.7166Z" fill="white"/>
<path fill-rule="evenodd" clip-rule="evenodd" d="M97.4662 31.3695C91.9988 30.9524 86.5319 30.5348 81.0645 30.1177V31.1637C86.5319 31.5808 91.9993 31.9984 97.4662 32.4155V31.3691" fill="white"/>
<path fill-rule="evenodd" clip-rule="evenodd" d="M97.4662 29.0224C91.9988 28.5335 86.5319 28.0446 81.0645 27.5557V28.603C86.5319 29.092 91.9993 29.5809 97.4662 30.0698V29.0229" fill="white"/>
<path fill-rule="evenodd" clip-rule="evenodd" d="M97.4657 26.6763L81.0635 24.9946V26.0425L97.4657 27.7237V26.6763Z" fill="white"/>
<path fill-rule="evenodd" clip-rule="evenodd" d="M118.324 40.8746C112.856 40.6724 107.389 40.4698 101.922 40.2676V41.3113C107.389 41.5135 112.857 41.7162 118.324 41.9184V40.8742" fill="white"/>
<path fill-rule="evenodd" clip-rule="evenodd" d="M118.324 38.5276C112.856 38.2536 107.389 37.9796 101.922 37.7056V38.7507C107.389 39.0247 112.857 39.2987 118.324 39.5727V38.528" fill="white"/>
<path fill-rule="evenodd" clip-rule="evenodd" d="M118.324 36.181C112.856 35.8352 107.389 35.4894 101.922 35.144V36.1896C107.389 36.5349 112.857 36.8807 118.324 37.2265V36.181Z" fill="white"/>
<path fill-rule="evenodd" clip-rule="evenodd" d="M118.324 33.8344C112.856 33.4172 107.389 32.9997 101.922 32.5825V33.6285C107.389 34.0457 112.857 34.4632 118.324 34.8804V33.8339" fill="white"/>
<path fill-rule="evenodd" clip-rule="evenodd" d="M118.324 31.4873C112.856 30.9984 107.389 30.5094 101.922 30.0205V31.0679C107.389 31.5568 112.857 32.0457 118.324 32.5347V31.4877" fill="white"/>
<path fill-rule="evenodd" clip-rule="evenodd" d="M118.324 29.1402L101.922 27.4585V28.5063L118.324 30.188V29.1402Z" fill="white"/>
<path fill-rule="evenodd" clip-rule="evenodd" d="M138.929 41.0061C133.462 40.7321 127.995 40.4581 122.527 40.1841V41.2287C127.995 41.5027 133.462 41.7767 138.929 42.0507V41.0061Z" fill="white"/>
<path fill-rule="evenodd" clip-rule="evenodd" d="M138.929 38.659C133.462 38.3132 127.995 37.9674 122.527 37.6221V38.6676C127.995 39.013 133.462 39.3588 138.929 39.7045V38.659Z" fill="white"/>
<path fill-rule="evenodd" clip-rule="evenodd" d="M138.929 36.3119C133.462 35.8948 127.995 35.4772 122.527 35.0601V36.1061C127.995 36.5232 133.462 36.9403 138.929 37.3579V36.3115" fill="white"/>
<path fill-rule="evenodd" clip-rule="evenodd" d="M138.929 33.9648C133.462 33.4759 127.995 32.987 122.527 32.498V33.545C127.995 34.0339 133.462 34.5228 138.929 35.0117V33.9644" fill="white"/>
<path fill-rule="evenodd" clip-rule="evenodd" d="M138.929 31.6182L122.527 29.9365V30.9848L138.929 32.6661V31.6182Z" fill="white"/>
<path fill-rule="evenodd" clip-rule="evenodd" d="M17.2607 29.1568L79.6398 21.1514V23.1739L19.2699 30.8476V43.0662L79.6398 42.9844V44.9974H17.2607V29.1568Z" fill="white"/>
<path fill-rule="evenodd" clip-rule="evenodd" d="M79.6398 21.1514L17.2607 29.1568V44.9974H79.6398V21.1514ZM61.8139 43.3854V25.0598L70.8889 27.2945V39.0282L61.8139 43.3854ZM40.9564 28.0453V43.5283L47.8411 39.1711V30.2805L40.9564 28.0453ZM20.3499 43.5696V31.0475L27.2346 32.8551V40.0458L20.3499 43.5696Z" fill="white"/>
<path fill-rule="evenodd" clip-rule="evenodd" d="M142.019 26.0055L79.6396 18V20.0225L142.019 27.9516V26.0055Z" fill="white"/>
<path fill-rule="evenodd" clip-rule="evenodd" d="M17.2607 26.0055L79.6398 18V20.0225L17.2607 27.9516V26.0055Z" fill="white"/>
<path fill-rule="evenodd" clip-rule="evenodd" d="M78.6357 18.3494L79.6403 18L80.6449 18.3494V22.1622H78.6357V18.3494Z" fill="white"/>
</g>
<defs>
<linearGradient id="paint0_linear_2026_2" x1="80" y1="0" x2="80" y2="65" gradientUnits="userSpaceOnUse">
<stop stop-color="#51443D"/>
<stop offset="1" stop-color="#785745"/>
</linearGradient>
<linearGradient id="paint1_linear_2026_2" x1="149.5" y1="65" x2="149.5" y2="86" gradientUnits="userSpaceOnUse">
<stop stop-color="#51443D"/>
<stop offset="1" stop-color="#785745"/>
</linearGradient>
<clipPath id="clip0_2026_2">
<rect width="125.28" height="27" fill="white" transform="translate(17 18)"/>
</clipPath>
</defs>
</svg>
