<svg width="22" height="22" viewBox="0 0 22 22" fill="none" xmlns="http://www.w3.org/2000/svg">
<g clip-path="url(#clip0_149_1370)">
<mask id="mask0_149_1370" style="mask-type:luminance" maskUnits="userSpaceOnUse" x="0" y="0" width="22" height="22">
<path d="M0 0H22V22H0V0Z" fill="white"/>
</mask>
<g mask="url(#mask0_149_1370)">
<path d="M19.7996 9.9001C19.1921 9.9001 18.6996 10.3926 18.6996 11.0001V18.7001H3.29961V3.3001H10.9996C11.6071 3.3001 12.0996 2.80761 12.0996 2.2001C12.0996 1.59259 11.6071 1.1001 10.9996 1.1001H2.74961C1.83834 1.1001 1.09961 1.83882 1.09961 2.7501V19.2501C1.09961 20.1613 1.83834 20.9001 2.74961 20.9001H19.2496C20.1609 20.9001 20.8996 20.1613 20.8996 19.2501V11.0001C20.8996 10.3926 20.4071 9.9001 19.7996 9.9001Z" fill="white"/>
<path d="M17.0822 2.23193L19.7646 4.91504L11.2525 13.4277L7.69922 14.2986L8.56997 10.7446L17.0822 2.23193Z" fill="white"/>
<path d="M20.997 3.68577L18.3145 1.00267L18.7613 0.555778C19.5021 -0.185258 20.7034 -0.18526 21.4444 0.555776C22.185 1.29658 22.185 2.4975 21.4444 3.23829L20.997 3.68577Z" fill="white"/>
</g>
</g>
<defs>
<clipPath id="clip0_149_1370">
<rect width="22" height="22" fill="white"/>
</clipPath>
</defs>
</svg>
