<svg width="30" height="25" viewBox="0 0 30 25" fill="none" xmlns="http://www.w3.org/2000/svg">
<path d="M23.4905 10.5886V5.15406C23.4905 4.73819 23.1897 4.3853 22.7804 4.30667L15.3919 0.11571C15.12 -0.0385701 14.785 -0.0385701 14.513 0.11571L6.94898 4.40631C6.67705 4.56054 6.50953 4.84561 6.50953 5.15411V10.5887C3.59514 11.4896 0 13.3489 0 16.3491C0 18.9237 2.77805 21.1602 7.45928 22.3797L7.11006 23.9509C6.96029 24.6245 7.6398 25.1944 8.29518 24.9368L12.6897 23.2098C13.2711 22.9814 13.4303 22.243 12.9902 21.8029L9.70898 18.5216C9.22078 18.0335 8.37234 18.2721 8.22334 18.9426L7.83481 20.6905C4.12559 19.7086 1.75781 18.0293 1.75781 16.3491C1.75781 14.8901 3.55582 13.4162 6.50953 12.4078V13.7353C6.50953 14.0438 6.67705 14.3289 6.94898 14.4831L14.5605 18.8007C14.8325 18.9549 15.1675 18.9549 15.4395 18.8007L23.051 14.4831C23.3229 14.3288 23.4905 14.0438 23.4905 13.7353V12.4078C26.4442 13.4162 28.2422 14.8901 28.2422 16.3491C28.2422 19.5467 21.0939 21.17 17.5834 21.4544C17.0996 21.4937 16.7399 21.9108 16.7798 22.3861C16.8193 22.8566 17.2389 23.2148 17.7281 23.1756C22.3043 22.8039 30 20.8611 30 16.3491C30 13.3486 26.4039 11.4893 23.4905 10.5886ZM9.59396 20.8708L10.8111 22.088L9.181 22.7287L9.59396 20.8708ZM14.9525 1.86057L20.8062 5.18106C20.0916 5.58644 15.4769 8.20403 15 8.47454C14.4797 8.17939 9.92701 5.59698 9.14625 5.15406L14.9525 1.86057ZM8.26734 6.64977L14.1211 9.97019V16.5572L8.26734 13.2367V6.64977ZM21.7327 13.2367L15.8789 16.5572V9.97019L21.7327 6.64977V13.2367Z" fill="white"/>
</svg>
