<svg width="26" height="26" viewBox="0 0 26 26" fill="none" xmlns="http://www.w3.org/2000/svg">
<path d="M1.59113 1.63916C1.50668 1.63918 1.42306 1.65583 1.34504 1.68817C1.26703 1.72051 1.19615 1.7679 1.13645 1.82763C1.07675 1.88736 1.0294 1.95827 0.997109 2.03631C0.964816 2.11434 0.948211 2.19797 0.948242 2.28242V23.7174C0.948211 23.8018 0.964816 23.8855 0.997109 23.9635C1.0294 24.0415 1.07675 24.1124 1.13645 24.1722C1.19615 24.2319 1.26703 24.2793 1.34504 24.3116C1.42306 24.344 1.50668 24.3606 1.59113 24.3606H24.4086C24.493 24.3606 24.5767 24.344 24.6547 24.3116C24.7327 24.2793 24.8036 24.2319 24.8633 24.1722C24.923 24.1124 24.9703 24.0415 25.0026 23.9635C25.0349 23.8855 25.0515 23.8018 25.0515 23.7174V2.28242C25.0515 2.19797 25.0349 2.11434 25.0026 2.03631C24.9703 1.95827 24.923 1.88736 24.8633 1.82763C24.8036 1.7679 24.7327 1.72051 24.6547 1.68817C24.5767 1.65583 24.493 1.63918 24.4086 1.63916H1.59113ZM2.23402 2.92531H12.3572C12.357 2.93081 12.3568 2.9363 12.3568 2.9418V12.2995H2.23402V2.92531ZM13.6426 2.92531H23.7657V12.2995H13.6429V2.9418C13.6429 2.9363 13.6428 2.93081 13.6426 2.92531ZM2.23402 13.5852H12.3568V23.058C12.3568 23.0635 12.357 23.069 12.3572 23.0745H2.23402V13.5852ZM13.6429 13.5852H23.7657V23.0745H13.6426C13.6428 23.069 13.6429 23.0635 13.6429 23.058V13.5852Z" fill="white"/>
<path d="M7.29313 4.95166C7.12263 4.95168 6.95912 5.01942 6.83856 5.13998C6.718 5.26054 6.65026 5.42405 6.65024 5.59455V6.97104H5.27375C5.10325 6.97106 4.93974 7.0388 4.81918 7.15936C4.69862 7.27992 4.63088 7.44343 4.63086 7.61393C4.63088 7.78443 4.69862 7.94793 4.81918 8.06849C4.93974 8.18906 5.10325 8.25679 5.27375 8.25681H6.65024V9.63331C6.65026 9.8038 6.718 9.96731 6.83856 10.0879C6.95912 10.2084 7.12263 10.2762 7.29313 10.2762C7.46362 10.2762 7.62713 10.2084 7.74769 10.0879C7.86825 9.96731 7.93599 9.8038 7.93601 9.63331V8.25681H9.31251C9.483 8.25679 9.64651 8.18906 9.76707 8.06849C9.88763 7.94793 9.95537 7.78443 9.95539 7.61393C9.95537 7.44343 9.88763 7.27992 9.76707 7.15936C9.64651 7.0388 9.483 6.97106 9.31251 6.97104H7.93601V5.59455C7.93599 5.42405 7.86825 5.26054 7.74769 5.13998C7.62713 5.01942 7.46362 4.95168 7.29313 4.95166Z" fill="white"/>
<path d="M16.6735 6.9707C16.5891 6.97066 16.5054 6.98726 16.4274 7.01955C16.3494 7.05184 16.2785 7.09919 16.2187 7.15889C16.159 7.21859 16.1116 7.28947 16.0793 7.36749C16.0469 7.44551 16.0303 7.52914 16.0303 7.61359C16.0303 7.69804 16.0469 7.78167 16.0793 7.85969C16.1116 7.93771 16.159 8.00859 16.2187 8.06829C16.2785 8.12799 16.3494 8.17534 16.4274 8.20763C16.5054 8.23992 16.5891 8.25652 16.6735 8.25648H20.7119C20.8824 8.25646 21.0459 8.18872 21.1665 8.06816C21.287 7.9476 21.3548 7.78409 21.3548 7.61359C21.3548 7.44309 21.287 7.27958 21.1665 7.15902C21.0459 7.03846 20.8824 6.97072 20.7119 6.9707H16.6735Z" fill="white"/>
<path d="M5.63554 15.9884C5.47443 15.991 5.32018 16.054 5.20332 16.1649C5.14211 16.2231 5.09294 16.2927 5.05864 16.3699C5.02434 16.4471 5.00558 16.5302 5.00342 16.6146C5.00126 16.699 5.01575 16.7831 5.04606 16.8619C5.07638 16.9407 5.12192 17.0128 5.18008 17.074L6.38451 18.3414L5.11711 19.5458C5.05589 19.604 5.00672 19.6736 4.97242 19.7508C4.93813 19.8279 4.91936 19.9111 4.9172 19.9955C4.91504 20.0799 4.92953 20.1639 4.95985 20.2427C4.99016 20.3216 5.0357 20.3936 5.09386 20.4548C5.15202 20.5161 5.22167 20.5652 5.29883 20.5995C5.376 20.6338 5.45916 20.6526 5.54357 20.6547C5.62798 20.6569 5.712 20.6424 5.79081 20.6121C5.86962 20.5818 5.94169 20.5363 6.0029 20.4781L7.27031 19.2737L8.38927 20.4511C8.44743 20.5123 8.51708 20.5615 8.59424 20.5958C8.6714 20.6301 8.75457 20.6488 8.83898 20.651C8.92339 20.6532 9.0074 20.6387 9.08622 20.6084C9.16503 20.578 9.2371 20.5325 9.29831 20.4743C9.35953 20.4162 9.40869 20.3465 9.44299 20.2694C9.47729 20.1922 9.49606 20.109 9.49822 20.0246C9.50037 19.9402 9.48588 19.8562 9.45557 19.7774C9.42526 19.6986 9.37972 19.6265 9.32155 19.5653L8.20259 18.3879L9.47 17.1834C9.53122 17.1253 9.58038 17.0556 9.61468 16.9785C9.64898 16.9013 9.66774 16.8181 9.6699 16.7337C9.67206 16.6493 9.65757 16.5653 9.62726 16.4865C9.59695 16.4077 9.55141 16.3356 9.49324 16.2744C9.43508 16.2132 9.36543 16.164 9.28827 16.1297C9.21111 16.0954 9.12795 16.0766 9.04353 16.0745C8.95912 16.0723 8.87511 16.0868 8.7963 16.1171C8.71748 16.1474 8.64541 16.193 8.5842 16.2511L7.31679 17.4556L6.11199 16.1882C6.05071 16.1237 5.97672 16.0727 5.89472 16.0383C5.81271 16.0039 5.72446 15.9869 5.63554 15.9884Z" fill="white"/>
<path d="M16.3011 16.396C16.1306 16.396 15.9671 16.4638 15.8465 16.5843C15.726 16.7049 15.6582 16.8684 15.6582 17.0389C15.6582 17.1233 15.6748 17.207 15.7071 17.285C15.7393 17.363 15.7867 17.434 15.8464 17.4937C15.9061 17.5534 15.977 17.6008 16.055 17.6332C16.133 17.6655 16.2166 17.6821 16.3011 17.6821H21.084C21.1684 17.6821 21.252 17.6655 21.33 17.6332C21.4081 17.6008 21.4789 17.5534 21.5386 17.4937C21.5984 17.434 21.6457 17.363 21.678 17.285C21.7103 17.207 21.7269 17.1233 21.7268 17.0389C21.7268 16.8684 21.6591 16.7049 21.5385 16.5843C21.418 16.4638 21.2544 16.396 21.084 16.396H16.3011ZM16.3011 18.9608C16.1306 18.9608 15.9671 19.0286 15.8465 19.1491C15.726 19.2697 15.6582 19.4332 15.6582 19.6037C15.6582 19.7742 15.726 19.9377 15.8465 20.0583C15.9671 20.1788 16.1306 20.2466 16.3011 20.2466H21.084C21.2544 20.2466 21.418 20.1788 21.5385 20.0583C21.6591 19.9377 21.7268 19.7742 21.7268 19.6037C21.7268 19.4332 21.6591 19.2697 21.5385 19.1491C21.418 19.0286 21.2544 18.9608 21.084 18.9608H16.3011Z" fill="white"/>
</svg>
