<svg width="38" height="38" viewBox="0 0 38 38" fill="none" xmlns="http://www.w3.org/2000/svg">
<g clip-path="url(#clip0_116_753)">
<path d="M37.5877 18.179L35.2856 16.0436C35.1286 15.8981 35.0082 15.7175 34.9342 15.5166L33.1263 10.6074C32.8678 9.91559 32.4045 9.31896 31.7983 8.89707C31.192 8.47518 30.4716 8.24808 29.733 8.24603H26.9938V7.47757C26.9938 7.14709 26.8626 6.83015 26.6289 6.59647C26.3952 6.36279 26.0783 6.23151 25.7478 6.23151H9.19351C8.9472 6.22861 8.70946 6.32189 8.53084 6.49151C8.35222 6.66114 8.2468 6.89374 8.23698 7.13987C8.23468 7.26291 8.25693 7.38517 8.30242 7.49951C8.34791 7.61385 8.41574 7.71798 8.50194 7.8058C8.58813 7.89363 8.69097 7.9634 8.80444 8.01102C8.9179 8.05865 9.03972 8.08319 9.16278 8.0832H25.1421V16.1172C25.1421 16.4476 25.2734 16.7646 25.507 16.9982C25.7407 17.2319 26.0577 17.3632 26.3881 17.3632H33.9133L36.1483 19.3745V26.8774H34.1221C33.9203 25.9945 33.4248 25.2063 32.7167 24.6417C32.0085 24.0771 31.1297 23.7697 30.2241 23.7697C29.3184 23.7697 28.4396 24.0771 27.7314 24.6417C27.0233 25.2063 26.5278 25.9945 26.326 26.8774H20.0911C19.8894 25.9945 19.3938 25.2063 18.6857 24.6417C17.9776 24.0771 17.0987 23.7697 16.1931 23.7697C15.2874 23.7697 14.4086 24.0771 13.7005 24.6417C12.9923 25.2063 12.4968 25.9945 12.295 26.8774H9.19343C8.94709 26.8745 8.70933 26.9678 8.53072 27.1375C8.3521 27.3071 8.24672 27.5398 8.23698 27.786C8.23468 27.909 8.25693 28.0313 8.30242 28.1456C8.34792 28.2599 8.41574 28.3641 8.50194 28.4519C8.58814 28.5397 8.69097 28.6095 8.80444 28.6571C8.91791 28.7047 9.03973 28.7292 9.16278 28.7292H12.3106C12.5251 29.5968 13.0239 30.3675 13.7276 30.9184C14.4313 31.4693 15.2992 31.7686 16.1928 31.7686C17.0865 31.7686 17.9544 31.4693 18.658 30.9184C19.3617 30.3675 19.8606 29.5968 20.075 28.7292H26.3418C26.5562 29.5968 27.0551 30.3675 27.7587 30.9184C28.4624 31.4693 29.3303 31.7686 30.2239 31.7686C31.1176 31.7686 31.9855 31.4693 32.6892 30.9184C33.3928 30.3675 33.8917 29.5968 34.1061 28.7292H36.754C37.0845 28.7292 37.4014 28.5979 37.6351 28.3643C37.8688 28.1306 38.0001 27.8137 38.0001 27.4832V19.1051C38 18.9305 37.9632 18.7578 37.8921 18.5983C37.8211 18.4388 37.7174 18.2959 37.5877 18.179ZM26.9938 15.5118V10.0976H29.733C30.0937 10.0986 30.4454 10.2095 30.7414 10.4155C31.0374 10.6215 31.2636 10.9128 31.3898 11.2506L32.9681 15.5118H26.9938ZM16.1929 29.9166C15.7681 29.9166 15.3529 29.7907 14.9997 29.5547C14.6465 29.3187 14.3712 28.9833 14.2087 28.5908C14.0461 28.1984 14.0036 27.7666 14.0865 27.35C14.1693 26.9334 14.3739 26.5507 14.6743 26.2503C14.9746 25.95 15.3573 25.7454 15.7739 25.6626C16.1905 25.5797 16.6223 25.6222 17.0148 25.7848C17.4072 25.9474 17.7426 26.2227 17.9786 26.5759C18.2146 26.929 18.3405 27.3443 18.3405 27.7691C18.3399 28.3384 18.1134 28.8843 17.7108 29.2869C17.3081 29.6896 16.7622 29.916 16.1929 29.9166ZM30.224 29.9166C29.7992 29.9167 29.384 29.7907 29.0308 29.5547C28.6776 29.3187 28.4023 28.9833 28.2397 28.5909C28.0772 28.1985 28.0346 27.7666 28.1175 27.35C28.2004 26.9334 28.4049 26.5507 28.7053 26.2503C29.0056 25.95 29.3883 25.7454 29.8049 25.6626C30.2216 25.5797 30.6534 25.6222 31.0458 25.7848C31.4383 25.9474 31.7737 26.2227 32.0097 26.5758C32.2456 26.929 32.3716 27.3443 32.3716 27.7691C32.3709 28.3384 32.1445 28.8843 31.7418 29.2869C31.3392 29.6895 30.7934 29.916 30.224 29.9166Z" fill="#0074B6"/>
<path d="M5.20867 13.2628H15.7087C15.9543 13.2628 16.1898 13.1652 16.3634 12.9916C16.5371 12.8179 16.6346 12.5824 16.6346 12.3368C16.6346 12.0913 16.5371 11.8557 16.3634 11.6821C16.1898 11.5084 15.9543 11.4109 15.7087 11.4109H5.20867C4.96309 11.4109 4.72757 11.5084 4.55392 11.6821C4.38027 11.8557 4.28271 12.0913 4.28271 12.3368C4.28271 12.5824 4.38027 12.8179 4.55392 12.9916C4.72757 13.1652 4.96309 13.2628 5.20867 13.2628Z" fill="#0074B6"/>
<path d="M16.6349 17.4804C16.6349 17.2349 16.5373 16.9993 16.3636 16.8257C16.19 16.652 15.9545 16.5545 15.7089 16.5545H0.925942C0.803651 16.5534 0.682355 16.5765 0.569057 16.6226C0.455759 16.6686 0.352704 16.7366 0.265842 16.8227C0.17898 16.9088 0.110032 17.0113 0.0629784 17.1241C0.0159252 17.237 -0.00830078 17.3581 -0.00830078 17.4804C-0.00830078 17.6027 0.0159252 17.7238 0.0629784 17.8367C0.110032 17.9495 0.17898 18.052 0.265842 18.1381C0.352704 18.2242 0.455759 18.2922 0.569057 18.3382C0.682355 18.3843 0.803651 18.4074 0.925942 18.4063H15.7089C15.9545 18.4063 16.19 18.3088 16.3636 18.1351C16.5373 17.9615 16.6348 17.726 16.6349 17.4804Z" fill="#0074B6"/>
<path d="M10.7718 22.6239C10.7718 22.5023 10.7479 22.3819 10.7013 22.2696C10.6548 22.1572 10.5866 22.0552 10.5006 21.9692C10.4146 21.8832 10.3126 21.815 10.2002 21.7685C10.0879 21.7219 9.96751 21.698 9.84592 21.698H3.41034C3.16621 21.7002 2.93282 21.7987 2.76096 21.9721C2.5891 22.1455 2.49268 22.3798 2.49268 22.6239C2.49268 22.8681 2.5891 23.1023 2.76096 23.2757C2.93282 23.4491 3.16621 23.5476 3.41034 23.5498H9.84592C10.0915 23.5498 10.327 23.4522 10.5006 23.2786C10.6743 23.105 10.7718 22.8694 10.7718 22.6239Z" fill="#0074B6"/>
</g>
<defs>
<clipPath id="clip0_116_753">
<rect width="38" height="38" fill="white"/>
</clipPath>
</defs>
</svg>
