<svg width="35" height="35" viewBox="0 0 35 35" fill="none" xmlns="http://www.w3.org/2000/svg">
<g clip-path="url(#clip0_116_748)">
<path d="M30.7623 1.233H27.6182L27.6183 22.0112H30.7623C31.961 22.0112 32.9422 22.9951 32.9494 24.2046C32.9526 24.7227 32.699 25.2891 32.2711 25.7195C31.8442 26.149 31.3119 26.3855 30.7721 26.3855H4.24275C3.45755 26.3855 2.70619 26.594 2.05202 26.9844V13.479C1.98627 10.5154 4.59694 7.87046 7.56869 7.9993L12.0263 7.99951C12.2551 9.37634 13.0484 10.5648 14.1608 11.3164L13.3154 13.7907C12.0551 13.2401 11.0065 12.2567 10.37 10.9641L8.53043 11.8699C9.3779 13.6014 10.8673 14.9992 12.652 15.7322L9.82558 24.0034L11.766 24.6665L14.6366 16.2657C15.368 16.3973 18.4904 16.318 19.2826 16.3381L22.1284 24.6665L24.0688 24.0035L19.7336 11.3164C20.846 10.5648 21.6394 9.37634 21.8681 7.99951H27.6181V5.94903H21.7829C21.3165 4.11679 19.8336 2.68652 17.9725 2.29624V0.207764H15.922V2.29631C14.0609 2.68659 12.578 4.11686 12.1116 5.9491H7.60293C3.51948 5.77891 -0.0891574 9.39978 0.0016788 13.4791C0.00161045 13.479 0.00161045 30.5743 0.00161045 30.5743H0.0016788C0.00502791 32.821 1.98763 34.7925 4.24282 34.7925H7.38688V28.436H30.7722C31.8619 28.436 32.9108 27.9846 33.7254 27.165C34.5409 26.3446 35.0053 25.2627 34.9999 24.1959V5.47065C34.9999 3.134 33.0989 1.233 30.7623 1.233ZM18.5819 14.2877C18.338 14.2833 15.4696 14.2999 15.317 14.2747L16.0638 12.089C16.6345 12.1947 17.2599 12.1947 17.8306 12.089L18.5819 14.2877ZM16.9472 4.24037C18.5678 4.24037 19.8862 5.55883 19.8862 7.17939C19.7248 11.0784 14.1691 11.0773 14.0082 7.17939C14.0082 5.55883 15.3267 4.24037 16.9472 4.24037ZM5.33634 32.742H4.24275C2.49219 32.6963 1.25103 30.5215 2.6686 29.0843C3.46623 28.2871 4.31855 28.4493 5.33634 28.436V32.742ZM32.9494 20.5747C31.8588 19.9021 30.9156 19.9484 29.6687 19.9607L29.6687 3.28348H30.7623C31.9683 3.28348 32.9494 4.26463 32.9494 5.47065V20.5747Z" fill="#0074B6"/>
<path d="M15.9219 6.15405H17.9724V8.20453H15.9219V6.15405Z" fill="#0074B6"/>
</g>
<defs>
<clipPath id="clip0_116_748">
<rect width="35" height="35" fill="white"/>
</clipPath>
</defs>
</svg>
