<svg width="35" height="35" viewBox="0 0 35 35" fill="none" xmlns="http://www.w3.org/2000/svg">
<path d="M27.7083 3.64593H24.7917V2.91681C24.7913 2.53017 24.6375 2.15948 24.3641 1.88609C24.0907 1.61269 23.72 1.45891 23.3334 1.4585H11.6667C11.28 1.45891 10.9094 1.61269 10.636 1.88609C10.3626 2.15948 10.2088 2.53017 10.2084 2.91681V3.64593H7.29169C6.51841 3.64681 5.77705 3.95439 5.23026 4.50119C4.68346 5.04798 4.37589 5.78934 4.375 6.56262V30.6251C4.37589 31.3984 4.68346 32.1398 5.23026 32.6866C5.77705 33.2333 6.51841 33.5409 7.29169 33.5418H27.7083C28.4816 33.5409 29.2229 33.2333 29.7697 32.6866C30.3165 32.1398 30.6241 31.3984 30.625 30.6251V6.56262C30.6241 5.78934 30.3165 5.04798 29.7697 4.50119C29.2229 3.95439 28.4816 3.64681 27.7083 3.64593ZM11.6667 2.91681H23.3333L23.3344 5.8335H11.6667V2.91681ZM29.1667 30.6251C29.1663 31.0118 29.0125 31.3825 28.7391 31.6559C28.4657 31.9293 28.095 32.0831 27.7084 32.0834H7.29169C6.90503 32.0831 6.5343 31.9293 6.26088 31.6559C5.98746 31.3825 5.83369 31.0118 5.83331 30.6251V6.56262C5.83373 6.17598 5.9875 5.80529 6.2609 5.5319C6.5343 5.2585 6.90498 5.10472 7.29162 5.10431H10.2083V5.83343C10.2087 6.22007 10.3625 6.59075 10.6359 6.86415C10.9093 7.13755 11.28 7.29132 11.6666 7.29174H23.3333C23.72 7.29132 24.0906 7.13755 24.364 6.86415C24.6374 6.59075 24.7912 6.22007 24.7916 5.83343V5.10431H27.7083C28.095 5.10471 28.4657 5.25847 28.7391 5.53187C29.0125 5.80527 29.1663 6.17597 29.1667 6.56262V30.6251Z" fill="#0074B6"/>
<path d="M25.5208 12.3958H15.3125C15.1203 12.3976 14.9366 12.4753 14.8014 12.6118C14.6662 12.7484 14.5903 12.9328 14.5903 13.1249C14.5903 13.3171 14.6662 13.5015 14.8014 13.6381C14.9366 13.7746 15.1203 13.8522 15.3125 13.8541H25.5208C25.6171 13.855 25.7127 13.8369 25.802 13.8006C25.8913 13.7644 25.9725 13.7108 26.0409 13.643C26.1094 13.5752 26.1638 13.4945 26.2008 13.4056C26.2379 13.3167 26.257 13.2213 26.257 13.1249C26.257 13.0286 26.2379 12.9332 26.2008 12.8443C26.1638 12.7553 26.1094 12.6746 26.0409 12.6068C25.9725 12.539 25.8913 12.4855 25.802 12.4493C25.7127 12.413 25.6171 12.3949 25.5208 12.3958Z" fill="#0074B6"/>
<path d="M11.6667 10.9375H10.2083C9.82167 10.9379 9.45099 11.0917 9.17759 11.3651C8.90419 11.6385 8.75042 12.0092 8.75 12.3958V13.8541C8.7504 14.2408 8.90417 14.6115 9.17757 14.8849C9.45096 15.1583 9.82166 15.3121 10.2083 15.3125H11.6666C12.0533 15.3121 12.424 15.1583 12.6974 14.8849C12.9708 14.6115 13.1246 14.2408 13.125 13.8542V12.3958C13.1246 12.0092 12.9708 11.6385 12.6974 11.3651C12.424 11.0917 12.0533 10.9379 11.6667 10.9375ZM10.2084 13.8542V12.3958H11.6667L11.6678 13.8541L10.2084 13.8542Z" fill="#0074B6"/>
<path d="M25.5208 18.9583H15.3125C15.1203 18.9601 14.9366 19.0378 14.8014 19.1743C14.6662 19.3109 14.5903 19.4953 14.5903 19.6874C14.5903 19.8796 14.6662 20.064 14.8014 20.2006C14.9366 20.3371 15.1203 20.4147 15.3125 20.4166H25.5208C25.6171 20.4175 25.7127 20.3994 25.802 20.3631C25.8913 20.3269 25.9725 20.2733 26.0409 20.2055C26.1094 20.1377 26.1638 20.057 26.2008 19.9681C26.2379 19.8792 26.257 19.7838 26.257 19.6874C26.257 19.5911 26.2379 19.4957 26.2008 19.4068C26.1638 19.3178 26.1094 19.2371 26.0409 19.1693C25.9725 19.1015 25.8913 19.048 25.802 19.0117C25.7127 18.9755 25.6171 18.9574 25.5208 18.9583Z" fill="#0074B6"/>
<path d="M11.6667 17.5H10.2083C9.82166 17.5004 9.45095 17.6541 9.17755 17.9275C8.90414 18.201 8.75038 18.5717 8.75 18.9583V20.4166C8.75036 20.8033 8.90412 21.174 9.17752 21.4474C9.45093 21.7208 9.82165 21.8746 10.2083 21.875H11.6666C12.0533 21.8746 12.424 21.7209 12.6974 21.4475C12.9708 21.1741 13.1246 20.8034 13.125 20.4167V18.9583C13.1246 18.5717 12.9709 18.201 12.6975 17.9275C12.424 17.6541 12.0533 17.5004 11.6667 17.5ZM10.2084 20.4167V18.9583H11.6667L11.6678 20.4166L10.2084 20.4167Z" fill="#0074B6"/>
<path d="M25.5208 25.5208H15.3125C15.1203 25.5226 14.9366 25.6003 14.8014 25.7368C14.6662 25.8734 14.5903 26.0578 14.5903 26.2499C14.5903 26.4421 14.6662 26.6265 14.8014 26.7631C14.9366 26.8996 15.1203 26.9772 15.3125 26.9791H25.5208C25.6171 26.98 25.7127 26.9619 25.802 26.9256C25.8913 26.8894 25.9725 26.8358 26.0409 26.768C26.1094 26.7002 26.1638 26.6195 26.2008 26.5306C26.2379 26.4417 26.257 26.3463 26.257 26.2499C26.257 26.1536 26.2379 26.0582 26.2008 25.9693C26.1638 25.8803 26.1094 25.7996 26.0409 25.7318C25.9725 25.664 25.8913 25.6105 25.802 25.5742C25.7127 25.538 25.6171 25.5199 25.5208 25.5208Z" fill="#0074B6"/>
<path d="M11.6667 24.0625H10.2083C9.82166 24.0629 9.45095 24.2166 9.17755 24.49C8.90414 24.7635 8.75038 25.1342 8.75 25.5208V26.9791C8.75036 27.3658 8.90412 27.7365 9.17752 28.0099C9.45093 28.2833 9.82165 28.4371 10.2083 28.4375H11.6666C12.0533 28.4371 12.424 28.2834 12.6974 28.01C12.9708 27.7366 13.1246 27.3659 13.125 26.9792V25.5208C13.1246 25.1342 12.9709 24.7635 12.6975 24.49C12.424 24.2166 12.0533 24.0629 11.6667 24.0625ZM10.2084 26.9792V25.5208H11.6667L11.6678 26.9791L10.2084 26.9792Z" fill="#0074B6"/>
</svg>
