<svg width="40" height="40" viewBox="0 0 40 40" fill="none" xmlns="http://www.w3.org/2000/svg">
<path d="M33.0567 7.5H6.94333C5.76529 7.50132 4.63588 7.96988 3.80288 8.80288C2.96988 9.63588 2.50132 10.7653 2.5 11.9433V28.0567C2.50132 29.2347 2.96988 30.3641 3.80288 31.1971C4.63588 32.0301 5.76529 32.4987 6.94333 32.5H33.0567C34.2347 32.4987 35.3641 32.0301 36.1971 31.1971C37.0301 30.3641 37.4987 29.2347 37.5 28.0567V11.9433C37.4987 10.7653 37.0301 9.63588 36.1971 8.80288C35.3641 7.96988 34.2347 7.50132 33.0567 7.5ZM6.94333 9.16667H33.0567C33.7928 9.16755 34.4986 9.46037 35.0191 9.98091C35.5396 10.5014 35.8325 11.2072 35.8333 11.9433V14.1667H4.16667V11.9433C4.16755 11.2072 4.46037 10.5014 4.98091 9.98091C5.50144 9.46037 6.20719 9.16755 6.94333 9.16667ZM33.0567 30.8333H6.94333C6.20719 30.8325 5.50144 30.5396 4.98091 30.0191C4.46037 29.4986 4.16755 28.7928 4.16667 28.0567V15.8333H35.8333V28.0567C35.8325 28.7928 35.5396 29.4986 35.0191 30.0191C34.4986 30.5396 33.7928 30.8325 33.0567 30.8333Z" fill="#0074B6"/>
<path d="M15 25.8333H8.33333C8.11232 25.8333 7.90036 25.921 7.74408 26.0773C7.5878 26.2336 7.5 26.4456 7.5 26.6666C7.5 26.8876 7.5878 27.0996 7.74408 27.2558C7.90036 27.4121 8.11232 27.4999 8.33333 27.4999H15C15.221 27.4999 15.433 27.4121 15.5893 27.2558C15.7455 27.0996 15.8333 26.8876 15.8333 26.6666C15.8333 26.4456 15.7455 26.2336 15.5893 26.0773C15.433 25.921 15.221 25.8333 15 25.8333Z" fill="#0074B6"/>
</svg>
