<svg width="40" height="40" viewBox="0 0 40 40" fill="none" xmlns="http://www.w3.org/2000/svg">
<path d="M38.8281 30.2734H31.9502C31.9511 30.2344 31.9531 30.1955 31.9531 30.1562C31.9531 29.3426 31.755 28.5748 31.4063 27.8966V6.05469C31.4063 5.4075 30.8816 4.88281 30.2345 4.88281H25.5469C24.8997 4.88281 24.375 5.4075 24.375 6.05469V18.5547H20.6017L17.8385 8.24219H18.9062C19.5534 8.24219 20.0781 7.7175 20.0781 7.07031C20.0781 6.42313 19.5534 5.89844 18.9062 5.89844H5.70312C5.05594 5.89844 4.53125 6.42313 4.53125 7.07031V18.6623C1.95148 19.1728 0 21.4523 0 24.1797V29.1016C0 31.003 1.51766 32.5557 3.40523 32.6144C3.84117 34.0606 5.185 35.1172 6.77148 35.1172C8.35695 35.1172 9.70008 34.062 10.137 32.6172H22.6874C23.5437 34.1092 25.152 35.1172 26.9922 35.1172C28.8327 35.1172 30.4411 34.109 31.2973 32.6166C31.3014 32.6166 31.3055 32.6172 31.3096 32.6172H38.8281C39.4753 32.6172 40 32.0925 40 31.4453C40 30.7981 39.4753 30.2734 38.8281 30.2734ZM26.7188 7.22656H29.0626V25.6498C28.432 25.3589 27.731 25.1953 26.9922 25.1953C26.9004 25.1953 26.8093 25.1983 26.7188 25.2032V7.22656ZM6.875 8.24219H15.4158C15.4205 8.26516 18.5618 19.9662 18.5938 20.0322V23.0078H6.87492L6.875 8.24219ZM6.77148 32.7734C6.12531 32.7734 5.59961 32.2477 5.59961 31.6016C5.59961 30.9554 6.12531 30.4297 6.77148 30.4297C7.41766 30.4297 7.94336 30.9554 7.94336 31.6016C7.94336 32.2477 7.41766 32.7734 6.77148 32.7734ZM10.0258 30.2734C9.5007 28.9916 8.24016 28.0859 6.77148 28.0859C5.30281 28.0859 4.04219 28.9916 3.51719 30.2734H3.51562C2.86945 30.2734 2.34375 29.7477 2.34375 29.1016V24.1797C2.34375 22.7537 3.25797 21.5373 4.53117 21.0859V24.1797C4.53117 24.8269 5.05586 25.3516 5.70305 25.3516H19.7656C20.4128 25.3516 20.9375 24.8269 20.9375 24.1797V20.8984H24.375V25.9445C22.9692 26.8213 22.0312 28.3809 22.0312 30.1562C22.0312 30.1955 22.0333 30.2344 22.0342 30.2734H10.0258ZM26.9922 32.7734C25.5491 32.7734 24.375 31.5994 24.375 30.1562C24.375 28.7131 25.5491 27.5391 26.9922 27.5391C28.4353 27.5391 29.6094 28.7131 29.6094 30.1562C29.6094 31.5994 28.4353 32.7734 26.9922 32.7734Z" fill="#0074B6"/>
</svg>
