<svg width="16" height="19" viewBox="0 0 16 19" fill="none" xmlns="http://www.w3.org/2000/svg">
<path d="M9.77778 0H6.22222C2.77607 0 0 2.96692 0 6.65V9.5C0 12.0723 1.3812 14.4108 3.55556 15.5069V18.6931C3.55556 18.8538 3.69231 19 3.87009 19C3.93846 19 4.02051 18.9708 4.07521 18.9123L6.64615 16.15H9.77778C13.2239 16.15 16 13.1831 16 9.5V6.65C16 2.96692 13.2239 0 9.77778 0ZM12.1162 12.4669L11.2274 13.4169C10.2701 14.4108 7.80855 13.2708 5.63419 10.9031C3.45983 8.53538 2.48889 5.86077 3.40513 4.86692L4.29402 3.91692C4.64957 3.56615 5.21026 3.58077 5.56581 3.94615L6.85128 5.37846C7.17949 5.75846 7.17949 6.32846 6.82393 6.70846C6.72821 6.81077 6.6188 6.86923 6.49573 6.92769C6.04444 7.07385 5.81197 7.54154 5.92137 8.02385C6.14017 9.07615 7.38462 10.3915 8.32821 10.6546C8.76581 10.7715 9.21709 10.5085 9.36752 10.0554C9.51795 9.58769 10.0103 9.32462 10.4752 9.48538C10.612 9.52923 10.7214 9.63154 10.8308 9.71923L12.1162 11.1515C12.4444 11.5023 12.4444 12.0869 12.1162 12.4669ZM8.79316 4.51615C8.69744 4.51615 8.61539 4.51615 8.53333 4.54538C8.38291 4.57462 8.2188 4.44308 8.20513 4.25308C8.19145 4.06308 8.30086 3.91692 8.46496 3.90231C8.57436 3.87308 8.68376 3.87308 8.79316 3.87308C10.4342 3.87308 11.747 5.30538 11.7744 7.03C11.7744 7.14692 11.7744 7.26385 11.747 7.38077C11.7197 7.54154 11.5966 7.68769 11.4188 7.65846C11.241 7.62923 11.1316 7.49769 11.159 7.30769C11.159 7.20538 11.1863 7.11769 11.1863 7.03C11.1727 5.65615 10.106 4.51615 8.79316 4.51615ZM10.5709 7.05923C10.5436 7.22 10.4205 7.36615 10.2427 7.33692C10.106 7.30769 9.98291 7.19077 9.98291 7.05923C9.98291 6.37231 9.44957 5.80231 8.80684 5.80231C8.65641 5.83154 8.49231 5.68538 8.47863 5.51C8.45128 5.34923 8.58803 5.17385 8.73846 5.15923H8.77949C9.80513 5.15923 10.5709 6.00692 10.5709 7.05923ZM12.841 8.06769C12.8137 8.22846 12.6632 8.34538 12.5128 8.33077C12.3624 8.31615 12.253 8.14077 12.2667 7.98C12.2667 7.95077 12.2667 7.95077 12.2667 7.93615C12.335 7.65846 12.3624 7.36615 12.3624 7.05923C12.3624 4.96923 10.7624 3.25923 8.80684 3.25923C8.71111 3.25923 8.62906 3.25923 8.54701 3.25923C8.39658 3.28846 8.23248 3.14231 8.23248 2.96692C8.20513 2.80615 8.34188 2.63077 8.49231 2.63077C8.60171 2.63077 8.71111 2.60154 8.80684 2.60154C11.0906 2.60154 12.9641 4.58923 12.9641 7.04462C12.9504 7.38077 12.9094 7.74615 12.841 8.06769Z" fill="white"/>
</svg>
