<svg width="19" height="11" viewBox="0 0 19 11" fill="none" xmlns="http://www.w3.org/2000/svg">
<path d="M18.8992 9.79001C18.8762 9.74043 18.8548 9.6993 18.8349 9.66635C18.5052 9.07264 17.8753 8.34391 16.9454 7.47994L16.9257 7.46015L16.9159 7.45045L16.906 7.44051H16.896C16.474 7.0382 16.2067 6.7677 16.0948 6.62921C15.89 6.36539 15.8441 6.09835 15.9561 5.82778C16.0351 5.62335 16.3321 5.19163 16.8464 4.53202C17.1169 4.18245 17.3311 3.90228 17.4893 3.69119C18.6304 2.17427 19.125 1.20493 18.9733 0.782808L18.9143 0.684163C18.8747 0.624775 18.7725 0.570445 18.6078 0.520897C18.4428 0.471453 18.2318 0.463277 17.9745 0.496228L15.1256 0.515908C15.0794 0.499554 15.0135 0.501078 14.9276 0.520897C14.8419 0.540716 14.799 0.550661 14.799 0.550661L14.7494 0.575435L14.7101 0.605198C14.6771 0.624878 14.6408 0.659493 14.6012 0.708971C14.5618 0.758277 14.5288 0.81614 14.5025 0.882076C14.1923 1.68007 13.8397 2.42201 13.4439 3.10785C13.1998 3.51681 12.9757 3.87123 12.7711 4.17132C12.5667 4.47131 12.3952 4.69234 12.2568 4.83402C12.1182 4.97583 11.9931 5.08945 11.8808 5.17527C11.7686 5.26113 11.683 5.29741 11.6237 5.28414C11.5643 5.27087 11.5084 5.2577 11.4554 5.24454C11.3631 5.18515 11.2889 5.10438 11.2329 5.00217C11.1767 4.89995 11.1389 4.7713 11.1191 4.61632C11.0994 4.46123 11.0878 4.32783 11.0845 4.21567C11.0814 4.10365 11.0828 3.94521 11.0895 3.74078C11.0964 3.53625 11.0994 3.39786 11.0994 3.3253C11.0994 3.07465 11.1043 2.80263 11.1141 2.50915C11.1241 2.21567 11.1322 1.98315 11.1389 1.81184C11.1457 1.64037 11.1488 1.45894 11.1488 1.26768C11.1488 1.07642 11.1371 0.926427 11.1141 0.81756C11.0914 0.708832 11.0565 0.603292 11.0105 0.500974C10.9643 0.39876 10.8966 0.319692 10.8077 0.263561C10.7187 0.207499 10.608 0.16301 10.4763 0.129955C10.1268 0.0508514 9.68164 0.00806014 9.14074 0.00140757C7.91414 -0.011759 7.12598 0.0674481 6.77644 0.238925C6.63795 0.311376 6.51263 0.410367 6.40057 0.535588C6.28183 0.680732 6.26527 0.75994 6.35099 0.772968C6.74675 0.832252 7.02692 0.974069 7.19181 1.19828L7.25124 1.31709C7.29746 1.40281 7.34361 1.55458 7.3898 1.77217C7.43591 1.98976 7.46568 2.23047 7.47877 2.49415C7.51169 2.97566 7.51169 3.38784 7.47877 3.73073C7.44575 4.07375 7.41457 4.34079 7.38481 4.53205C7.35504 4.72331 7.31055 4.8783 7.25124 4.99697C7.19181 5.11568 7.15228 5.18823 7.13246 5.21456C7.11268 5.2409 7.09618 5.25749 7.08309 5.26401C6.99736 5.29686 6.90821 5.31359 6.81594 5.31359C6.72353 5.31359 6.61148 5.26737 6.47961 5.175C6.34777 5.08262 6.21094 4.95574 6.06912 4.79414C5.9273 4.6325 5.76737 4.40662 5.58924 4.11647C5.41124 3.82633 5.22657 3.48341 5.03531 3.08772L4.87706 2.80075C4.77814 2.61615 4.64301 2.34734 4.47153 1.99458C4.29995 1.64168 4.1483 1.30032 4.01646 0.970569C3.96376 0.832078 3.88458 0.726642 3.77908 0.654088L3.72956 0.624324C3.69665 0.597991 3.64381 0.570029 3.57132 0.540231C3.49873 0.510468 3.42299 0.489124 3.34378 0.475992L0.633242 0.495673C0.356259 0.495673 0.168324 0.558422 0.0693669 0.683747L0.0297633 0.743031C0.00997886 0.776051 0 0.828787 0 0.901376C0 0.973931 0.0197845 1.06298 0.0593881 1.16841C0.455078 2.09839 0.885381 2.99527 1.3503 3.85921C1.81522 4.72314 2.21922 5.41906 2.56207 5.94635C2.90499 6.47401 3.25453 6.97202 3.61068 7.44013C3.96684 7.90841 4.20259 8.2085 4.31794 8.34034C4.43342 8.47242 4.52413 8.57117 4.59007 8.6371L4.83743 8.87448C4.9957 9.03279 5.22813 9.22239 5.5348 9.44328C5.84155 9.6643 6.18114 9.8819 6.55375 10.0964C6.92644 10.3106 7.36 10.4853 7.85468 10.6205C8.34929 10.7558 8.8307 10.8101 9.29898 10.7839H10.4366C10.6674 10.764 10.8422 10.6914 10.961 10.5662L11.0003 10.5166C11.0268 10.4773 11.0516 10.4161 11.0745 10.3338C11.0976 10.2514 11.1091 10.1606 11.1091 10.0618C11.1023 9.77826 11.1239 9.52273 11.1733 9.29523C11.2226 9.06779 11.2788 8.89631 11.3416 8.78083C11.4045 8.66545 11.4753 8.56808 11.5542 8.48915C11.6333 8.41005 11.6896 8.36213 11.7227 8.34564C11.7555 8.32904 11.7818 8.31778 11.8016 8.31103C11.9598 8.25829 12.1461 8.30936 12.3607 8.46448C12.575 8.61947 12.7761 8.81083 12.9642 9.03827C13.1521 9.26591 13.378 9.52131 13.6417 9.80484C13.9056 10.0885 14.1364 10.2993 14.3342 10.438L14.532 10.5567C14.664 10.6359 14.8355 10.7085 15.0466 10.7744C15.2573 10.8403 15.4419 10.8568 15.6004 10.8239L18.1328 10.7844C18.3833 10.7844 18.5782 10.7429 18.7164 10.6606C18.855 10.5782 18.9372 10.4874 18.9638 10.3886C18.9903 10.2897 18.9917 10.1775 18.9688 10.0521C18.9454 9.92694 18.9222 9.83945 18.8992 9.79001Z" fill="white"/>
</svg>
